<svg id="Ebene_1" xmlns="http://www.w3.org/2000/svg" viewBox="0 0 159.7 126.4"><style>.st0{fill:#f8d200}.st1{fill:#e30613}.st2{fill:none}</style><path d="M50.4 75.5c0 .9-.6 1.3-1.1 1.3-.6 0-1-.5-1-1.1v-3.9h-.9v4.3c0 1 .5 1.5 1.5 1.5.6 0 1.1-.3 1.4-.8v.7h1c0-.4-.1-.8-.1-1.2v-4.5h-.9v3.7h.1zM57 77.4v-3.9c0-1.1-.3-1.8-1.5-1.8-.7 0-1.2.2-1.5.8v-.7h-1c0 .4.1.8.1 1.2v4.5h.9V74c0-.8.1-1.7 1.2-1.7.8 0 1 .5 1 1.1v3.9h.8v.1zM61.5 74.3c0 1.1 0 2.4-1 2.4-1.2 0-1.2-1.2-1.2-2.1 0-1.5.1-2.3 1.1-2.3 1.1.1 1.1 1.3 1.1 2zm0-2c-.3-.4-.7-.7-1.3-.7-1.8 0-1.9 1.6-1.9 3 0 2.5.9 2.8 1.8 2.8.6 0 1-.3 1.3-.8v.7h.9v-8.1h-.9v3.1h.1zM67.3 77.4v-3.7h2.9v-.9h-2.9v-2.6h3v-.9h-4v8.1h1zM73.1 76.8c-1 0-1.2-.7-1.2-2.5 0-1.5.5-1.9 1.2-1.9s1.2.3 1.2 1.9c0 1.8-.2 2.5-1.2 2.5zm0 .7c1.2 0 2.1-.4 2.1-2.9 0-1.7-.2-3-2.1-3-2 0-2.2 1.4-2.2 3 .1 2.5 1 2.9 2.2 2.9zM77.6 71.7h-.9v5.7h.9v-3.3c0-.8.3-1.5 1.3-1.5.2 0 .3 0 .5.1v-1c-.9 0-1.4.1-1.7 1v-1h-.1zM84 75.8c0-1.7-2.8-1.7-2.8-2.7 0-.5.4-.8.9-.8.6 0 .9.3.9.9h1c.1-1.1-.8-1.6-1.8-1.6-1.6 0-2 1-2 1.5 0 1.7 2.8 1.7 2.8 2.7 0 .6-.4.9-1 .9-.9 0-.9-.8-.9-1.1h-1c0 1.3.7 1.8 1.9 1.8 1.1.1 2-.4 2-1.6zM89.1 73.6c.1-1.3-.6-1.9-1.7-1.9-2 0-2.2 1.4-2.2 3 0 2.5 1 2.9 2.2 2.9.6 0 1.8-.4 1.8-2h-1c0 1-.6 1.2-.8 1.2-1 0-1.2-.7-1.2-2.5 0-1.5.5-1.9 1.2-1.9.3 0 .8.2.8 1.2h.9zM94.6 77.4v-4c0-1.3-.5-1.8-1.5-1.8-.7 0-1.2.2-1.5.8v-3.2h-.9v8.1h.9V74c0-1 .2-1.7 1.2-1.7.8 0 1 .5 1 1.2v3.8h.8v.1zM99.2 75.5c0 .9-.6 1.3-1.1 1.3-.7 0-1-.5-1-1.1v-3.9h-.9v4.3c0 1 .5 1.5 1.5 1.5.6 0 1.1-.3 1.4-.8v.7h1c0-.4-.1-.8-.1-1.2v-4.5h-.9v3.7h.1zM105.8 77.4v-3.9c0-1.1-.3-1.8-1.5-1.8-.7 0-1.2.2-1.5.8v-.7h-1c0 .4.1.8.1 1.2v4.5h.9V74c0-.8.1-1.7 1.2-1.7.8 0 1 .5 1 1.1v3.9h.8v.1zM110.3 74.5c0 .8 0 2.1-1.1 2.1-.7 0-1.1-.4-1.1-2.2 0-.8 0-2 1.1-2 1.2 0 1.1 1.3 1.1 2.1zm0-2.1c-.3-.5-.8-.8-1.3-.8s-1.8.2-1.8 2.8c0 1.7.3 3 1.8 3 .5 0 1-.3 1.2-.7v1.2c0 .6-.3 1-1 1-.5 0-.9-.3-.9-.8h-1c-.1 1 .8 1.5 1.7 1.5 1.2 0 2.1-.3 2.1-1.6v-6.2h-.9v.6h.1zM47 59.7v.7h.9v5h.9v-5H50v-.7h-1.1v-1c0-.5.2-.9 1.1-.8v-.7h-.4c-.8 0-1.6.2-1.6 1.4v1.1h-1zM52.4 57.6h-1.1v1.2h1.1v-1.2zm2 0h-1.1v1.2h1.1v-1.2zm-.5 5.9c0 .9-.6 1.3-1.1 1.3-.6 0-1-.5-1-1.1v-3.9h-.9v4.3c0 1 .5 1.5 1.5 1.5.6 0 1.1-.3 1.4-.8v.7h1c0-.4-.1-.8-.1-1.2v-4.5h-.9v3.7h.1zM57.4 59.7h-.9v5.7h.9v-3.3c0-.8.3-1.5 1.3-1.5.2 0 .3 0 .5.1v-1c-.9 0-1.4.1-1.7 1v-1h-.1zM63 61.6h1.1c1.1 0 1.8.2 1.8 1.5 0 .6-.4 1.4-1.5 1.4H63v-2.9zm0-3.4h1.5c.9 0 1.2.5 1.2 1.2 0 .8-.4 1.3-1.2 1.3H63v-2.5zm1.6 7.2c.9 0 2.4-.2 2.4-2.3 0-1.1-.5-1.8-1.7-1.9v-.1c1-.2 1.4-.9 1.4-1.9 0-.2 0-.6-.3-1.1-.3-.4-.7-.8-1.8-.8H62v8.1h2.6zM69.4 59.7h-.9v5.7h.9v-5.7zm-1-1.4h1v-1h-1v1zM72 57.3h-.9v8.1h.9v-8.1zM76.6 62.3c0 1.1 0 2.4-1 2.4-1.2 0-1.2-1.2-1.2-2.1 0-1.5.1-2.3 1.1-2.3 1 .1 1.1 1.3 1.1 2zm0-2c-.3-.4-.7-.7-1.3-.7-1.8 0-1.9 1.6-1.9 3 0 2.5.9 2.8 1.8 2.8.6 0 1-.3 1.3-.8v.7h.9v-8.1h-.9v3.1h.1zM82.2 63.5c0 .9-.6 1.3-1.1 1.3-.7 0-1-.5-1-1.1v-3.9h-.9v4.3c0 1 .5 1.5 1.5 1.5.6 0 1.1-.3 1.4-.8v.7h1c0-.4-.1-.8-.1-1.2v-4.5h-.9v3.7h.1zM88.8 65.4v-3.9c0-1.1-.3-1.8-1.5-1.8-.7 0-1.2.2-1.5.8v-.7h-1c0 .4.1.8.1 1.2v4.5h.9V62c0-.8.1-1.7 1.2-1.7.8 0 1 .5 1 1.1v3.9h.8v.1zM93.3 62.5c0 .8 0 2.1-1.1 2.1-.7 0-1.1-.4-1.1-2.2 0-.8 0-2 1.1-2 1.2 0 1.1 1.3 1.1 2.1zm0-2.1c-.3-.5-.8-.8-1.3-.8s-1.8.2-1.8 2.8c0 1.7.3 3 1.8 3 .5 0 1-.3 1.2-.7v1.2c0 .6-.3 1-1 1-.5 0-.9-.3-.9-.8h-1c-.1 1 .8 1.5 1.7 1.5 1.2 0 2.1-.3 2.1-1.6v-6.2h-.9v.6h.1zM48.5 49.6h1.1c1.1 0 1.8.2 1.8 1.5 0 .6-.4 1.4-1.5 1.4h-1.5v-2.9h.1zm0-3.4H50c.9 0 1.2.5 1.2 1.2 0 .8-.4 1.3-1.2 1.3h-1.5v-2.5zm1.6 7.2c.9 0 2.4-.2 2.4-2.3 0-1.1-.5-1.8-1.7-1.9v-.1c1-.2 1.4-.9 1.4-1.9 0-.2 0-.6-.3-1.1-.3-.4-.7-.8-1.8-.8h-2.6v8.1h2.6zM56.8 51.5c0 .9-.6 1.3-1.1 1.3-.6 0-1-.5-1-1.1v-3.9h-.9v4.3c0 1 .5 1.5 1.5 1.5.6 0 1.1-.3 1.4-.8v.7h1c0-.4-.1-.8-.1-1.2v-4.5h-.9v3.7h.1zM63.4 53.4v-3.9c0-1.1-.3-1.8-1.5-1.8-.7 0-1.2.2-1.5.8v-.7h-1c0 .4.1.8.1 1.2v4.5h.9V50c0-.8.1-1.7 1.2-1.7.8 0 1 .5 1 1.1v3.9h.8v.1zM67.9 50.3c0 1.1 0 2.4-1 2.4-1.2 0-1.2-1.2-1.2-2.1 0-1.5.1-2.3 1.1-2.3 1.1.1 1.1 1.3 1.1 2zm0-2c-.3-.4-.7-.7-1.3-.7-1.8 0-1.9 1.6-1.9 3 0 2.5.9 2.8 1.8 2.8.6 0 1-.3 1.3-.8v.7h.9v-8.1h-.9v3.1h.1zM71.2 50.2c0-1.6.5-1.8 1.1-1.8.7 0 1.1.2 1.1 1.8h-2.2zm3.2.7v-.5c0-1.9-.4-2.8-2-2.8-2 0-2.2 1.4-2.2 3 0 2.5 1 2.9 2.2 2.9 1.2 0 2-.6 2-1.8h-1c0 .6-.4 1.1-1 1.1-.7 0-1.1-.3-1.1-1.9h3.1zM79.5 51.8c0-1.7-2.8-1.7-2.8-2.7 0-.5.4-.8.9-.8.6 0 .9.3.9.9h1c.1-1.1-.8-1.6-1.8-1.6-1.6 0-1.9 1-1.9 1.5 0 1.7 2.8 1.7 2.8 2.7 0 .6-.4.9-1 .9-.9 0-.9-.8-.9-1.1h-1c0 1.3.7 1.8 1.9 1.8 1 .1 1.9-.4 1.9-1.6zM84.6 53.4v-3.8c0-.2 0-.8.3-1 .2-.2.3-.2.7-.2.7 0 .9.5.9 1.1v3.9h.9v-4.3c0-1.3-1-1.5-1.5-1.5s-1 .1-1.3.7c-.2-.5-.8-.7-1.3-.7-.7 0-1.1.2-1.4.8v-.7h-1c0 .4.1.8.1 1.2v4.5h.9v-3.8c0-.2 0-.5.2-.8.1-.2.5-.4.8-.4.7 0 .9.5.9 1.1v3.9h.8zM89.9 47.7H89v5.7h.9v-5.7zm-.9-1.4h1v-1h-1v1zM95.6 53.4v-3.9c0-1.1-.3-1.8-1.5-1.8-.7 0-1.2.2-1.5.8v-.7h-1c0 .4.1.8.1 1.2v4.5h.9V50c0-.8.1-1.7 1.2-1.7.8 0 1 .5 1 1.1v3.9h.8v.1zM98.1 47.7h-.9v5.7h.9v-5.7zm-.9-1.4h1v-1h-1v1zM103.4 51.8c0-1.7-2.8-1.7-2.8-2.7 0-.5.4-.8.9-.8.6 0 .9.3.9.9h1c.1-1.1-.8-1.6-1.8-1.6-1.6 0-1.9 1-1.9 1.5 0 1.7 2.8 1.7 2.8 2.7 0 .6-.4.9-1 .9-.9 0-.9-.8-.9-1.1h-1c0 1.3.7 1.8 2 1.8.9.1 1.8-.4 1.8-1.6zM104 47.7v.7h.9v4c0 .6.4 1 1.3 1 .3 0 .6-.1.9-.1v-.7h-.4c-.8 0-.8-.5-.8-.8v-3.5h1.2v-.7h-1.2v-1.5l-.9.4v1.1h-1v.1zM108.8 50.2c0-1.6.5-1.8 1.1-1.8.7 0 1.1.2 1.1 1.8h-2.2zm3.2.7v-.5c0-1.9-.4-2.8-2-2.8-2 0-2.2 1.4-2.2 3 0 2.5 1 2.9 2.2 2.9 1.2 0 2-.6 2-1.8h-1c0 .6-.4 1.1-1 1.1-.7 0-1.1-.3-1.1-1.9h3.1zM114.3 47.7h-.9v5.7h.9v-3.3c0-.8.3-1.5 1.3-1.5.2 0 .3 0 .5.1v-1c-.9 0-1.4.1-1.7 1v-1h-.1zM117.9 47.7h-.9v5.7h.9v-5.7zm-.9-1.4h1v-1h-1v1zM122.5 51.5c0 .9-.6 1.3-1.1 1.3-.7 0-1-.5-1-1.1v-3.9h-.9v4.3c0 1 .5 1.5 1.5 1.5.6 0 1.1-.3 1.4-.8v.7h1c0-.4-.1-.8-.1-1.2v-4.5h-.9v3.7h.1zM128.9 53.4v-3.8c0-.2 0-.8.3-1 .2-.2.3-.2.7-.2.7 0 .9.5.9 1.1v3.9h.9v-4.3c0-1.3-1-1.5-1.5-1.5s-1 .1-1.3.7c-.2-.5-.8-.7-1.3-.7-.7 0-1.1.2-1.4.8v-.7h-1c0 .4.1.8.1 1.2v4.5h.9v-3.8c0-.2 0-.5.2-.8.1-.2.5-.4.8-.4.7 0 .9.5.9 1.1v3.9h.8z"/><path class="st0" d="M36.9 85.4h3.5v20h-3.5v-20z"/><path class="st1" d="M36.9 65.3h3.5v20.1h-3.5V65.3z"/><path d="M36.9 45.4h3.5v20h-3.5v-20zM16.6 65.4zm0 0zm0 0zm0 0zm9.2-16.6c0-1.1-.8-2-1.1-2.3h-.2c.3.4.9 1 .9 1.9 0 1.7-1.7 3.1-3.7 3.1v1.1c2.1 0 4.1-1.8 4.1-3.8zm-3.1 13.7c-1 0-1.2-.1-1.4-.1-.2 0-.3 0-.3.2s.2.4.3.5c.2-.2.5-.3 1-.3.2 0 .6 0 .7.1V64c0 .6-.1.9-.3 1.1h.2c.4 0 .5-.2.5-1.1v-.6c.5.4 1 1.1 1 1.6.2-.1.4-.3.4-.5 0-.3-.6-.9-1.2-1.5.1 0 .3-.1.5-.1.5 0 .9.1 1.1.3.1-.1.2-.4.2-.6 0-.3-.2-.3-.3-.3-.5 0-1.1.1-1.6.2-.2-.2-1.2-1.6-1.5-2.4h-.3c-.3 0-.3.2-.4.4.6.7 1.2 1.4 1.4 2zm-5.8-2.1c-.1-.2-.1-.4-.4-.4h-.3c-.3.8-1.3 2.2-1.5 2.4-.5-.1-1.1-.2-1.6-.2-.1 0-.3 0-.3.3 0 .2.1.5.2.6.2-.3.6-.3 1.1-.3.2 0 .4.1.5.1-.6.6-1.2 1.1-1.2 1.5 0 .2.2.4.4.5 0-.5.5-1.2 1-1.6v.6c0 1 .1 1.1.5 1.1h.2c-.2-.2-.3-.5-.3-1.1v-.5-.6c.1 0 .5-.1.7-.1.5 0 .8 0 1 .3.2-.1.3-.4.3-.5 0-.2-.2-.2-.3-.2-.3 0-.5.1-1.4.1.3-.5.8-1.2 1.4-2zm-4-12c0-.8.5-1.5.9-1.9h-.2c-.3.3-1.1 1.2-1.1 2.3 0 2 2 3.8 4.3 3.9V52v-.4c-2.1-.1-3.9-1.6-3.9-3.2zm6.2-1.6c.1-.2.2-.5.2-.8 0-.9-.7-1.3-1.7-1.3-.5 0-.7.2-.7.3 0 .2.2.5.2.6.2-.1.5-.2.7-.2.7.1 1.2.8 1.3 1.4zm.5-1.1c.6.1.9-.6.4-.7.1.2-.3.4-.3.4s-.1-.3 0-.5c-.3-.2-.4 0-.4.2l.3.6zm1.8 5h.3c1.6 0 3.1-1 3.1-2.3 0-.7-.3-1.2-.7-1.7-.2 0-.4.1-.6.1-.7 0-1.1-.4-1.1-.8 0-.3.3-.6.7-.6.7 0 1.9.6 3.1.6-.1.1-.3.2-.6.3.7.6 1.2 1.5 1.4 2.4l1.9 3c.3.5 1 1.5 2 2.3-1.2 0-2 0-3-1.6l-1-1.5-.3.6 1.9 3.1c.3.5 1 1.5 2 2.3-1.2 0-2 0-3-1.6l-1.6-2.6-.4.4 2.3 3.7c.3.5 1 1.5 2 2.3-1.2 0-2 0-3-1.6l-2.3-3.6c-.1.1-.3.2-.5.3l2.8 4.4c.3.5 1 1.5 2 2.3-1.2 0-2 0-3-1.6L23 54.8c-.2.1-.3.1-.5.2l3.2 5.1c.3.5 1 1.5 2 2.2-1.2 0-2 0-3-1.6L21 54.9h-.1c-.1.3-.2.6-.2.8 0 1.7 1.1 3.2 2.5 4.4-.1 0-.2.1-.4.1h-.6c.3.7 1 1.6 1.3 2.1.4-.1 1.1-.1 1.5-.1.4 0 .5.3.5.5 0 .4-.2.7-.4.9-.1-.2-.2-.5-1.1-.5V63c.2.3 1 .9 1 1.4 0 .3-.4.8-.8.8v-.3c0-.4-.3-.9-.6-1.2v.2c0 .9-.1 1.4-.7 1.4-.3 0-.5-.2-.6-.2.4-.4.4-.6.4-1.2v-.5-.4h-.5s-.8-.1-1 .4c-.2-.2-.6-.5-.6-.8 0-.2.1-.5.5-.5.2 0 .7.1 1.1.1-.1-.3-.6-1-1.1-1.6-.1.2-.2.4-.4.6 0-.4-.2-1.5-.8-2.1-.1.4-.2.9-.2 1.8 0 2.3.6 4 1.7 4.3-.2.3-.5.5-.8.5-.4 0-.7-.5-.9-1-.1.3-.5 1.2-.8 1.2-.3 0-.7-.8-.8-1.2-.2.5-.5 1-.9 1-.3 0-.7-.2-.8-.5 1.2-.3 1.7-2 1.7-4.3 0-1-.1-1.4-.2-1.8-.5.6-.8 1.8-.8 2.1-.2-.2-.3-.4-.4-.6-.4.5-1 1.3-1.1 1.6.4 0 .9-.1 1.1-.1.4 0 .5.2.5.5s-.3.6-.6.8c-.2-.4-1-.4-1-.4h-.5v.9c0 .5 0 .8.4 1.2-.1 0-.3.2-.6.2-.6 0-.7-.4-.7-1.4v-.2c-.3.3-.6.8-.6 1.2v.3c-.5 0-.8-.5-.8-.8 0-.5.7-1.1 1-1.4h-.1c-.8 0-1 .3-1.1.5-.2-.2-.4-.5-.4-.9 0-.2 0-.5.5-.5.4 0 1.1.1 1.5.1.3-.5 1-1.4 1.3-2.1h-.6c-.1 0-.3 0-.4-.1 1.4-1.2 2.5-2.7 2.5-4.4 0-.3-.1-.6-.2-.8h-.1l-3.4 5.5c-1 1.6-1.8 1.6-3 1.6 1-.8 1.7-1.8 2-2.2l3.2-5.1c-.2-.1-.3-.1-.5-.2l-2.8 4.5c-1 1.6-1.8 1.6-3 1.6 1-.8 1.7-1.7 2-2.3l2.8-4.4c-.2-.1-.3-.2-.5-.3l-2.3 3.6c-1 1.6-1.8 1.6-3 1.6 1-.8 1.7-1.7 2-2.3l2.3-3.7-.4-.4-1.6 2.6c-1 1.6-1.8 1.6-3 1.6 1-.8 1.7-1.7 2-2.3l1.9-3.1-.3-.6-1 1.5c-1 1.6-1.8 1.6-3 1.6 1-.8 1.7-1.8 2-2.3l1.9-3c.2-.9.7-1.8 1.4-2.4l-.6-.3c1.2 0 2.4-.6 3.1-.6.4 0 .7.3.7.6 0 .4-.4.8-1.1.8-.2 0-.4 0-.6-.1-.4.5-.7 1-.7 1.7 0 1.3 1.6 2.3 3.1 2.3h.3c.3-1.1 1-1.8 1.5-2.4-.6-.2-1.4-.8-1.4-1.1.1 0 1.3.3 1.4.4h.1c.1 0 .3-.3.3-.3-.1 0-.9-.1-1.4-.3-.4-.1-.6-.4-.6-.5.1 0 .6.2 1.3.2h.6c-.2-.4-.5-.8-.9-.8-.2 0-.5.1-.8.2-.2-.3-.4-.7-.4-.9 0-.3.3-.6 1-.6.2 0 .4 0 .6.1.1 0 .3.1.4.1v-.1c0-.1.1-.2.4-.2.6 0 1.2.2 2 .2.2 0 .3 0 .4-.1 0 .2-.3.4-.5.6.1.2.4.6.4 1.2 0 1-.7 1.9-.7 2.9.5.9.9 1.4 1.1 1.8z"/><g><path d="M49.9 21.7c0-.6-.2-.9-.9-.9-.2 0-.9 0-.9 1.1v1.7c0 1.1.3 1.4.9 1.4.5 0 .8-.1.9-.2v-1.5H49v-.6h1.6v2.5c-.4.2-.9.4-1.5.4-1.1 0-1.6-.6-1.6-2v-1.7c0-1 .5-1.7 1.6-1.7s1.6.4 1.6 1.5h-.8zM51.7 25.4v-5.1h2.6v.6h-2v1.6h1.8v.6h-1.8v1.8h2v.6h-2.6zM55.2 25.4v-5.1h2.5v.6h-1.9v1.6h1.8v.6h-1.8v2.3h-.6zM58.3 23.5v-1.7c0-1 .5-1.7 1.6-1.7s1.6.6 1.6 1.7v1.7c0 1.4-.5 2-1.6 2-1 0-1.6-.6-1.6-2zm1.3-3.8H59V19h.7v.7zm1.3 3.9v-1.7c0-1.1-.7-1.1-.9-1.1-.2 0-.9 0-.9 1.1v1.7c0 1.1.3 1.4.9 1.4.5 0 .9-.3.9-1.4zm0-3.9h-.7V19h.7v.7zM63.3 23.1v2.3h-.6v-5.1h1.7c.9 0 1.2.6 1.2 1.3 0 .6-.3 1-.9 1.2.6.1.8.3.8 1.3 0 .2.1 1 .2 1.3H65c-.2-.4-.1-1-.2-1.7 0-.6-.5-.6-.8-.6h-.7zm0-.6h1c.5 0 .7-.4.7-.8s-.2-.8-.7-.8h-1v1.6zM66.5 20.3h1.6c.6 0 1.1.2 1.4.8.2.4.2 1.4.2 1.6 0 1.1-.1 1.7-.3 2-.3.4-.8.7-1.7.7h-1.2v-5.1zm.7 4.5h.6c.9 0 1.2-.3 1.2-1.5v-1c0-1-.3-1.4-1-1.4h-.8v3.9zM70.8 25.4v-5.1h2.6v.6h-2v1.6h1.8v.6h-1.8v1.8h2v.6h-2.6zM74.9 23.1v2.3h-.6v-5.1H76c.9 0 1.2.6 1.2 1.3 0 .6-.3 1-.9 1.2.6.1.8.3.8 1.3 0 .2.1 1 .2 1.3h-.7c-.2-.4-.1-1-.2-1.7 0-.6-.5-.6-.8-.6h-.7zm0-.6h1c.5 0 .7-.4.7-.8s-.2-.8-.7-.8h-1v1.6zM81 20.3v.6h-1.3v4.5h-.6v-4.5h-1.3v-.6H81zM85 25.4h-.8l-1.5-5.1h.7l1.2 4.4 1.2-4.4h.7L85 25.4zM87.1 23.5v-1.7c0-1 .5-1.7 1.6-1.7s1.6.6 1.6 1.7v1.7c0 1.4-.5 2-1.6 2s-1.6-.6-1.6-2zm2.5.1v-1.7c0-1.1-.7-1.1-.9-1.1s-.9 0-.9 1.1v1.7c0 1.1.3 1.4.9 1.4s.9-.3.9-1.4zM92 25.4h-.6v-5.1h1l1.3 4.2 1.3-4.2h1.1v5.1h-.6v-4.5L94 25.4h-.6L92 20.9v4.5z"/></g><path class="st2" d="M-8.4 0h168v126.4h-168z"/></svg>