<?xml version="1.0" encoding="utf-8"?>
<!-- Generator: Adobe Illustrator 20.1.0, SVG Export Plug-In . SVG Version: 6.00 Build 0)  -->
<svg version="1.1" id="Ebene_1" xmlns="http://www.w3.org/2000/svg" x="0px" y="0px"
     viewBox="0 0 159.7 126.4" style="enable-background:new 0 0 159.7 126.4;" xml:space="preserve">
<style type="text/css">
	.st0{fill:#EC1C24;}
	.st1{fill:#F5CE00;}
</style>
<g>
	<g>
		<polygon class="st0" points="37,65.2 40.6,65.2 40.6,85.3 37,85.3 37,65.2 		"/>
		<polygon class="st1" points="37,85.3 40.6,85.3 40.6,105.2 37,105.2 37,85.3 		"/>
		<polygon points="37,45.3 40.6,45.3 40.6,65.3 37,65.3 37,45.3 		"/>
		<path d="M16.8,65.3L16.8,65.3L16.8,65.3z M16.8,65.3L16.8,65.3L16.8,65.3z M16.8,65.3L16.8,65.3L16.8,65.3z M16.8,65.3L16.8,65.3
			L16.8,65.3z M26,48.7c0-1.1-0.8-2-1.1-2.3l-0.2,0c0.3,0.4,0.9,1,0.9,1.8c0,1.7-1.7,3.1-3.7,3.1c0,0.2,0,0.3,0,0.4
			c0,0.2,0,0.5,0,0.7C24,52.5,26,50.7,26,48.7L26,48.7z M22.9,62.4c-1,0-1.2-0.1-1.4-0.1c-0.2,0-0.3,0-0.3,0.2
			c0,0.2,0.2,0.4,0.3,0.5c0.2-0.2,0.5-0.3,1-0.3c0.2,0,0.6,0,0.7,0.1c0,0.1,0,0.3,0,0.6c0,0.1,0,0.3,0,0.5c0,0.6-0.1,0.9-0.3,1.1
			c0,0,0.2,0,0.2,0c0.4,0,0.5-0.2,0.5-1.1c0-0.3,0-0.6,0-0.6c0.5,0.4,1,1.1,1,1.6c0.2-0.1,0.4-0.3,0.4-0.5c0-0.3-0.6-0.9-1.2-1.5
			c0.1,0,0.3-0.1,0.5-0.1c0.5,0,0.9,0.1,1.1,0.3c0.1-0.1,0.2-0.4,0.2-0.6c0-0.3-0.2-0.3-0.3-0.3c-0.5,0-1.1,0.1-1.6,0.2
			c-0.2-0.2-1.2-1.6-1.5-2.4c-0.1,0-0.1,0-0.3,0c-0.3,0-0.3,0.2-0.4,0.4C22.1,61.1,22.7,61.8,22.9,62.4L22.9,62.4z M17.1,60.4
			c-0.1-0.2-0.1-0.4-0.4-0.4c-0.1,0-0.2,0-0.3,0c-0.3,0.8-1.3,2.2-1.5,2.4c-0.5-0.1-1.1-0.2-1.6-0.2c-0.1,0-0.3,0-0.3,0.3
			c0,0.2,0.1,0.5,0.2,0.6c0.2-0.3,0.6-0.3,1.1-0.3c0.2,0,0.4,0.1,0.5,0.1c-0.6,0.6-1.2,1.1-1.2,1.5c0,0.2,0.2,0.4,0.4,0.5
			c0-0.5,0.5-1.2,1-1.6c0,0.1,0,0.3,0,0.6c0,1,0.1,1.1,0.5,1.1c0.1,0,0.2,0,0.2,0c-0.2-0.2-0.3-0.5-0.3-1.1c0-0.2,0-0.3,0-0.5
			c0-0.3,0-0.4,0-0.6c0.1,0,0.5-0.1,0.7-0.1c0.5,0,0.8,0,1,0.3c0.2-0.1,0.3-0.4,0.3-0.5c0-0.2-0.2-0.2-0.3-0.2
			c-0.3,0-0.5,0.1-1.4,0.1C16,61.8,16.5,61.1,17.1,60.4L17.1,60.4z M13.2,48.3c0-0.8,0.5-1.5,0.9-1.8l-0.2,0
			c-0.3,0.3-1.1,1.2-1.1,2.3c0,2,2,3.8,4.3,3.9c0-0.2,0-0.4,0-0.7c0-0.2,0-0.3,0-0.4C14.9,51.4,13.2,50,13.2,48.3L13.2,48.3z
			 M19.3,46.8c0.1-0.2,0.2-0.5,0.2-0.8c0-0.9-0.7-1.3-1.7-1.3c-0.5,0-0.7,0.2-0.7,0.3c0,0.2,0.2,0.5,0.2,0.6
			c0.2-0.1,0.5-0.2,0.7-0.2C18.7,45.4,19.2,46.2,19.3,46.8L19.3,46.8z M19.8,45.7c0.6,0.1,0.9-0.6,0.4-0.7c0.1,0.2-0.3,0.4-0.3,0.4
			s-0.1-0.3,0-0.5c-0.3-0.2-0.4,0-0.4,0.2C19.6,45.2,19.7,45.4,19.8,45.7L19.8,45.7z M21.6,50.6c0.1,0,0.2,0,0.3,0
			c1.6,0,3.1-1,3.1-2.3c0-0.7-0.3-1.2-0.7-1.7c-0.2,0-0.4,0.1-0.6,0.1c-0.7,0-1.1-0.4-1.1-0.8c0-0.3,0.3-0.6,0.7-0.6
			c0.7,0,1.9,0.6,3.1,0.6C26.2,46,26,46,25.8,46.1c0.7,0.6,1.2,1.5,1.4,2.4l1.9,3c0.3,0.5,1,1.5,2,2.2c-1.2,0-2,0-3-1.6l-1-1.5
			c-0.1,0.2-0.2,0.4-0.3,0.6l1.9,3c0.3,0.5,1,1.5,2,2.2c-1.2,0-2,0-3-1.6L26,52.3c-0.1,0.1-0.3,0.3-0.4,0.4l2.3,3.7
			c0.3,0.5,1,1.5,2,2.2c-1.2,0-2,0-3-1.6l-2.3-3.6c-0.1,0.1-0.3,0.2-0.5,0.3l2.8,4.4c0.3,0.5,1,1.5,2,2.2c-1.2,0-2,0-3-1.6L23,54.3
			c-0.2,0.1-0.3,0.1-0.5,0.2l3.2,5.1c0.3,0.5,1,1.5,2,2.2c-1.2,0-2,0-3-1.6l-3.4-5.5l-0.1,0c-0.1,0.3-0.2,0.6-0.2,0.8
			c0,1.7,1.1,3.2,2.5,4.4c-0.1,0-0.2,0.1-0.4,0.1c-0.3,0-0.5,0-0.6,0c0.3,0.7,1,1.6,1.3,2.1c0.4-0.1,1.1-0.1,1.5-0.1
			c0.4,0,0.5,0.3,0.5,0.5c0,0.4-0.2,0.7-0.4,0.9c-0.1-0.2-0.2-0.5-1.1-0.5l-0.1,0c0.2,0.3,1,0.9,1,1.4c0,0.3-0.4,0.8-0.8,0.8
			c0-0.1,0-0.2,0-0.3c0-0.4-0.3-0.9-0.6-1.2c0,0.1,0,0.1,0,0.2c0,0.9-0.1,1.4-0.7,1.4c-0.3,0-0.5-0.2-0.6-0.2
			c0.4-0.4,0.4-0.6,0.4-1.2l0-0.5c0-0.1,0-0.3,0-0.4c-0.2,0-0.3,0-0.5,0c0,0-0.8-0.1-1,0.4c-0.2-0.2-0.6-0.5-0.6-0.8
			c0-0.2,0.1-0.5,0.5-0.5c0.2,0,0.7,0.1,1.1,0.1c-0.1-0.3-0.6-1-1.1-1.6c-0.1,0.2-0.2,0.4-0.4,0.6c0-0.4-0.2-1.5-0.8-2.1
			c-0.1,0.4-0.2,0.9-0.2,1.8c0,2.3,0.6,4,1.7,4.3c-0.2,0.3-0.5,0.5-0.8,0.5c-0.4,0-0.7-0.5-0.9-0.9C20,65.2,19.7,66,19.3,66
			c-0.3,0-0.7-0.8-0.8-1.2c-0.2,0.5-0.5,0.9-0.9,0.9c-0.3,0-0.7-0.2-0.8-0.5c1.2-0.3,1.7-2,1.7-4.3c0-0.9-0.1-1.4-0.2-1.8
			c-0.5,0.6-0.8,1.8-0.8,2.1c-0.2-0.2-0.3-0.4-0.4-0.6c-0.4,0.5-1,1.3-1.1,1.6c0.4,0,0.9-0.1,1.1-0.1c0.4,0,0.5,0.2,0.5,0.5
			c0,0.3-0.3,0.6-0.6,0.8c-0.2-0.4-1-0.4-1-0.4c-0.2,0-0.2,0-0.5,0c0,0.1,0,0.3,0,0.4l0,0.5c0,0.5,0,0.8,0.4,1.2
			c-0.1,0-0.3,0.2-0.6,0.2c-0.6,0-0.7-0.4-0.7-1.4c0-0.1,0-0.1,0-0.2c-0.3,0.3-0.6,0.8-0.6,1.2c0,0.1,0,0.2,0,0.3
			c-0.5,0-0.8-0.5-0.8-0.8c0-0.5,0.7-1.1,1-1.4l-0.1,0c-0.8,0-1,0.3-1.1,0.5c-0.2-0.2-0.4-0.5-0.4-0.9c0-0.2,0-0.5,0.5-0.5
			c0.4,0,1.1,0.1,1.5,0.1c0.3-0.5,1-1.4,1.3-2.1c-0.1,0-0.3,0-0.6,0c-0.1,0-0.3,0-0.4-0.1c1.4-1.2,2.5-2.7,2.5-4.4
			c0-0.3-0.1-0.6-0.2-0.8l-0.1,0l-3.4,5.5c-1,1.6-1.8,1.6-3,1.6c1-0.8,1.7-1.7,2-2.2l3.2-5.1c-0.2-0.1-0.3-0.1-0.5-0.2l-2.8,4.5
			c-1,1.6-1.8,1.6-3,1.6c1-0.8,1.7-1.7,2-2.2l2.8-4.4c-0.2-0.1-0.3-0.2-0.5-0.3l-2.3,3.6c-1,1.6-1.8,1.6-3,1.6c1-0.8,1.7-1.7,2-2.2
			l2.3-3.7c-0.1-0.1-0.3-0.3-0.4-0.4L11.1,55c-1,1.6-1.8,1.6-3,1.6c1-0.8,1.7-1.7,2-2.2l1.9-3c-0.1-0.2-0.2-0.4-0.3-0.6l-1,1.5
			c-1,1.6-1.8,1.6-3,1.6c1-0.8,1.7-1.7,2-2.2l1.9-3c0.2-0.9,0.7-1.8,1.4-2.4c-0.2-0.1-0.4-0.2-0.6-0.3c1.2,0,2.4-0.6,3.1-0.6
			c0.4,0,0.7,0.3,0.7,0.6c0,0.4-0.4,0.8-1.1,0.8c-0.2,0-0.4,0-0.6-0.1c-0.4,0.5-0.7,1-0.7,1.7c0,1.3,1.6,2.3,3.1,2.3
			c0.1,0,0.2,0,0.3,0c0.3-1.1,1-1.8,1.5-2.4c-0.6-0.2-1.3-0.8-1.3-1.1c0.1,0,1.3,0.3,1.4,0.4c0,0,0.1,0,0.1,0c0.1,0,0.3-0.3,0.3-0.3
			c-0.1,0-0.9-0.1-1.4-0.3c-0.4-0.1-0.6-0.4-0.6-0.5c0.1,0,0.6,0.2,1.3,0.2c0.3,0,0.3,0,0.6,0c-0.2-0.4-0.5-0.8-0.9-0.8
			c-0.2,0-0.5,0.1-0.8,0.2c-0.2-0.3-0.4-0.7-0.4-0.9c0-0.3,0.3-0.6,1-0.6c0.2,0,0.4,0,0.6,0.1c0.1,0,0.3,0.1,0.4,0.1
			c0,0,0-0.1,0-0.1c0-0.1,0.1-0.2,0.4-0.2c0.6,0,1.2,0.2,2,0.2c0.2,0,0.3,0,0.4-0.1c0,0.2-0.3,0.4-0.5,0.6c0.1,0.2,0.4,0.6,0.4,1.2
			c0,1-0.7,1.9-0.7,2.9C20.9,49.7,21.4,50.2,21.6,50.6L21.6,50.6z"/>
		<path d="M50.5,74.5c0.1,1.8-0.6,2.2-1.2,2.2c-0.6,0-0.9-0.5-0.9-1C48.4,74.4,49.6,74.5,50.5,74.5L50.5,74.5z M50.5,77.3h1
			c-0.1-0.4-0.1-0.9-0.1-1.3v-2.7c0-1-0.4-1.7-1.8-1.7c-1.2,0-1.9,0.4-1.9,1.7h1c-0.1-0.6,0.3-1,0.9-1c1,0,1,0.8,1,1.6
			c-1.3,0-3,0-3,1.8c0,1.1,0.3,1.9,1.5,1.9c0.7,0,1.1-0.3,1.4-0.9h0V77.3L50.5,77.3z"/>
		<path d="M57.2,77.3v-3.9c0-1.1-0.3-1.8-1.5-1.8c-0.7,0-1.2,0.2-1.5,0.8h0v-0.7h-1c0,0.4,0.1,0.8,0.1,1.2v4.5h0.9v-3.3
			c0-0.8,0.1-1.7,1.2-1.7c0.8,0,1,0.5,1,1.1v3.9H57.2L57.2,77.3z"/>
		<path d="M61.8,74.2c0,1.1,0,2.4-1,2.4c-1.2,0-1.2-1.2-1.2-2.1c0-1.5,0.1-2.3,1.1-2.3C61.7,72.3,61.8,73.5,61.8,74.2L61.8,74.2z
			 M61.8,72.2L61.8,72.2c-0.3-0.4-0.7-0.7-1.3-0.7c-1.8,0-1.9,1.6-1.9,3c0,2.5,0.9,2.8,1.8,2.8c0.6,0,1-0.3,1.3-0.8h0v0.7h0.9v-8.1
			h-0.9V72.2L61.8,72.2z"/>
		<path d="M67.9,70.1h1.6c0.8,0,1.1,0.7,1.1,1.2c0,0.7-0.4,1.3-1.1,1.3h-1.5V70.1L67.9,70.1z M69.2,73.6c0.3,0,1.1,0,1.2,1
			c0.1,1.1,0,2.1,0.3,2.7h1.1c-0.2-0.5-0.3-1.8-0.3-2.1c-0.1-1.6-0.4-1.9-1.3-2.1v0c0.9-0.2,1.5-0.9,1.5-1.8c0-1-0.5-2-1.9-2h-2.8
			v8.1h1v-3.7H69.2L69.2,73.6z"/>
		<path d="M74,74.1c0-1.6,0.5-1.8,1.1-1.8c0.7,0,1.1,0.2,1.1,1.8H74L74,74.1z M77.1,74.7v-0.5c0-1.9-0.4-2.8-2-2.8
			c-2,0-2.1,1.4-2.1,3c0,2.5,1,2.9,2.1,2.9c1.2,0,2-0.6,2-1.8h-1c0,0.6-0.4,1.1-1,1.1c-0.7,0-1.1-0.3-1.1-1.9H77.1L77.1,74.7z"/>
		<path d="M82.3,75.7c0-1.7-2.8-1.7-2.8-2.7c0-0.5,0.4-0.8,0.9-0.8c0.6,0,0.9,0.3,0.9,0.9h1c0.1-1.1-0.8-1.6-1.8-1.6
			c-1.6,0-1.9,1-1.9,1.5c0,1.7,2.8,1.7,2.8,2.7c0,0.6-0.4,0.9-1,0.9c-0.9,0-0.9-0.8-0.9-1.1h-1c0,1.3,0.7,1.8,1.9,1.8
			C81.4,77.4,82.3,76.9,82.3,75.7L82.3,75.7z"/>
		<path d="M84.5,74.1c0-1.6,0.5-1.8,1.1-1.8c0.7,0,1.1,0.2,1.1,1.8H84.5L84.5,74.1z M87.7,74.7v-0.5c0-1.9-0.4-2.8-2-2.8
			c-2,0-2.1,1.4-2.1,3c0,2.5,1,2.9,2.1,2.9c1.2,0,2-0.6,2-1.8h-1c0,0.6-0.4,1.1-1,1.1c-0.7,0-1.1-0.3-1.1-1.9H87.7L87.7,74.7z"/>
		<path d="M92.1,74.5c0.1,1.8-0.6,2.2-1.2,2.2c-0.6,0-0.9-0.5-0.9-1C90,74.4,91.2,74.5,92.1,74.5L92.1,74.5z M92.1,77.3h1
			C93,76.8,93,76.4,93,75.9v-2.7c0-1-0.4-1.7-1.8-1.7c-1.2,0-1.9,0.4-1.9,1.7h1c-0.1-0.6,0.3-1,0.9-1c1,0,1,0.8,1,1.6
			c-1.3,0-3,0-3,1.8c0,1.1,0.3,1.9,1.5,1.9c0.7,0,1.1-0.3,1.4-0.9h0V77.3L92.1,77.3z"/>
		<path d="M95.7,71.6h-0.9v5.6h0.9v-3.3c0-0.8,0.3-1.5,1.3-1.5c0.2,0,0.3,0,0.5,0.1v-1c-0.9,0-1.4,0.1-1.7,1h0V71.6L95.7,71.6z"/>
		<path d="M102.4,73.4c0.1-1.3-0.6-1.9-1.7-1.9c-2,0-2.1,1.4-2.1,3c0,2.5,1,2.9,2.1,2.9c0.6,0,1.8-0.4,1.8-2h-1c0,1-0.6,1.2-0.8,1.2
			c-0.9,0-1.2-0.7-1.2-2.5c0-1.5,0.5-1.9,1.2-1.9c0.3,0,0.8,0.2,0.8,1.2H102.4L102.4,73.4z"/>
		<path d="M108.1,77.3v-4c0-1.3-0.5-1.8-1.5-1.8c-0.7,0-1.2,0.2-1.5,0.8h0v-3.2h-0.9v8.1h0.9V74c0-0.9,0.2-1.7,1.2-1.7
			c0.8,0,1,0.5,1,1.2v3.8H108.1L108.1,77.3z"/>
		<path d="M49.4,64.7c-1,0-1.2-0.7-1.2-2.5c0-1.5,0.5-1.9,1.2-1.9c0.7,0,1.2,0.3,1.2,1.9C50.6,64,50.4,64.7,49.4,64.7L49.4,64.7z
			 M49.4,65.4c1.2,0,2.1-0.4,2.1-2.9c0-1.7-0.2-3-2.1-3c-2,0-2.1,1.4-2.1,3C47.3,65,48.2,65.4,49.4,65.4L49.4,65.4z"/>
		<path d="M52.3,59.6v0.7h0.9v5h0.9v-5h1.1v-0.7h-1.1v-1c0-0.5,0.2-0.9,1.1-0.8v-0.7c-0.1,0-0.2,0-0.4,0c-0.8,0-1.6,0.2-1.6,1.4v1.1
			H52.3L52.3,59.6z"/>
		<polygon points="62.9,65.3 62.9,64.4 59.7,64.4 59.7,61.6 62.7,61.6 62.7,60.7 59.7,60.7 59.7,58.1 62.9,58.1 62.9,57.2 
			58.7,57.2 58.7,65.3 62.9,65.3 		"/>
		<path d="M67.2,62.2c0,1.1,0,2.4-1,2.4c-1.2,0-1.2-1.2-1.2-2.1c0-1.5,0.1-2.3,1.1-2.3C67.1,60.3,67.2,61.5,67.2,62.2L67.2,62.2z
			 M67.2,60.2L67.2,60.2c-0.3-0.4-0.7-0.7-1.3-0.7c-1.8,0-1.9,1.6-1.9,3c0,2.5,0.9,2.8,1.8,2.8c0.6,0,1-0.3,1.3-0.8h0v0.7h0.9v-8.1
			h-0.9V60.2L67.2,60.2z"/>
		<path d="M72.8,63.4c0,0.9-0.6,1.3-1.1,1.3c-0.6,0-1-0.5-1-1.1v-3.9h-0.9V64c0,1,0.5,1.5,1.5,1.5c0.6,0,1.1-0.3,1.4-0.8h0v0.7h1
			c0-0.4-0.1-0.8-0.1-1.2v-4.5h-0.9V63.4L72.8,63.4z"/>
		<path d="M79.3,61.5c0.1-1.3-0.6-1.9-1.7-1.9c-2,0-2.1,1.4-2.1,3c0,2.5,1,2.9,2.1,2.9c0.6,0,1.8-0.4,1.8-2h-1c0,1-0.6,1.2-0.8,1.2
			c-1,0-1.2-0.7-1.2-2.5c0-1.5,0.5-1.9,1.2-1.9c0.3,0,0.8,0.2,0.8,1.2H79.3L79.3,61.5z"/>
		<path d="M83.9,62.5c0.1,1.8-0.6,2.2-1.2,2.2c-0.6,0-0.9-0.5-0.9-1C81.8,62.4,83,62.5,83.9,62.5L83.9,62.5z M83.9,65.3h1
			c-0.1-0.4-0.1-0.9-0.1-1.3v-2.7c0-1-0.4-1.7-1.8-1.7c-1.2,0-1.9,0.4-1.9,1.7h1c-0.1-0.6,0.3-1,0.9-1c1,0,1,0.8,1,1.6
			c-1.3,0-3,0-3,1.8c0,1.1,0.3,1.9,1.5,1.9c0.7,0,1.1-0.3,1.4-0.9h0V65.3L83.9,65.3z"/>
		<path d="M85.7,59.6v0.7h0.9v4c0,0.6,0.4,1,1.3,1c0.3,0,0.6-0.1,0.9-0.1v-0.7c-0.2,0-0.3,0-0.4,0c-0.8,0-0.8-0.5-0.8-0.8v-3.5h1.2
			v-0.7h-1.2v-1.5l-0.9,0.4v1.1H85.7L85.7,59.6z"/>
		<path d="M90.6,59.6h-0.9v5.6h0.9V59.6L90.6,59.6z M89.6,58.2h1v-1h-1V58.2L89.6,58.2z"/>
		<path d="M94.1,64.7c-1,0-1.2-0.7-1.2-2.5c0-1.5,0.5-1.9,1.2-1.9c0.7,0,1.2,0.3,1.2,1.9C95.3,64,95.1,64.7,94.1,64.7L94.1,64.7z
			 M94.1,65.4c1.2,0,2.1-0.4,2.1-2.9c0-1.7-0.2-3-2.1-3c-2,0-2.1,1.4-2.1,3C92,65,93,65.4,94.1,65.4L94.1,65.4z"/>
		<path d="M101.7,65.3v-3.9c0-1.1-0.3-1.8-1.5-1.8c-0.7,0-1.2,0.2-1.5,0.8h0v-0.7h-1c0,0.4,0.1,0.8,0.1,1.2v4.5h0.9v-3.3
			c0-0.8,0.1-1.7,1.2-1.7c0.8,0,1,0.5,1,1.1v3.9H101.7L101.7,65.3z"/>
		<polygon points="48.6,53.3 48.6,49.6 51.5,49.6 51.5,48.7 48.6,48.7 48.6,46.1 51.6,46.1 51.6,45.2 47.6,45.2 47.6,53.3 
			48.6,53.3 		"/>
		<path d="M53.4,50.1c0-1.6,0.5-1.8,1.1-1.8c0.7,0,1.1,0.2,1.1,1.8H53.4L53.4,50.1z M56.6,50.8v-0.5c0-1.9-0.4-2.8-2-2.8
			c-2,0-2.1,1.4-2.1,3c0,2.5,1,2.9,2.1,2.9c1.2,0,2-0.6,2-1.8h-1c0,0.6-0.4,1.1-1,1.1c-0.7,0-1.1-0.3-1.1-1.9H56.6L56.6,50.8z"/>
		<path d="M61.1,50.3c0,1.1,0,2.4-1,2.4c-1.2,0-1.2-1.2-1.2-2.1c0-1.5,0.1-2.3,1.1-2.3C61.1,48.3,61.1,49.5,61.1,50.3L61.1,50.3z
			 M61.1,48.2L61.1,48.2c-0.3-0.4-0.7-0.7-1.3-0.7c-1.8,0-1.9,1.6-1.9,3c0,2.5,0.9,2.8,1.8,2.8c0.6,0,1-0.3,1.3-0.8h0v0.7H62v-8.1
			h-0.9V48.2L61.1,48.2z"/>
		<path d="M64.6,50.1c0-1.6,0.5-1.8,1.1-1.8c0.7,0,1.1,0.2,1.1,1.8H64.6L64.6,50.1z M67.8,50.8v-0.5c0-1.9-0.4-2.8-2-2.8
			c-2,0-2.1,1.4-2.1,3c0,2.5,1,2.9,2.1,2.9c1.2,0,2-0.6,2-1.8h-1c0,0.6-0.4,1.1-1,1.1c-0.7,0-1.1-0.3-1.1-1.9H67.8L67.8,50.8z"/>
		<path d="M70.3,47.7h-0.9v5.6h0.9V50c0-0.8,0.3-1.5,1.3-1.5c0.2,0,0.3,0,0.5,0.1v-1c-0.9,0-1.4,0.1-1.7,1h0V47.7L70.3,47.7z"/>
		<path d="M75.9,50.5c0.1,1.8-0.6,2.2-1.2,2.2c-0.6,0-0.9-0.5-0.9-1C73.9,50.4,75.1,50.5,75.9,50.5L75.9,50.5z M75.9,53.3h1
			c-0.1-0.4-0.1-0.9-0.1-1.3v-2.7c0-1-0.4-1.7-1.8-1.7c-1.2,0-1.9,0.4-1.9,1.7h1c-0.1-0.6,0.3-1,0.9-1c1,0,1,0.8,1,1.6
			c-1.3,0-3,0-3,1.8c0,1.1,0.3,1.9,1.5,1.9c0.7,0,1.1-0.3,1.4-0.9h0V53.3L75.9,53.3z"/>
		<polygon points="79.5,45.2 78.6,45.2 78.6,53.3 79.5,53.3 79.5,45.2 		"/>
		<polygon points="84.7,46.1 84.7,46.1 86.9,53.3 87.9,53.3 90.1,46.1 90.2,46.1 90.2,53.3 91.2,53.3 91.2,45.2 89.5,45.2 87.4,52 
			87.4,52 85.4,45.2 83.7,45.2 83.7,53.3 84.7,53.3 84.7,46.1 		"/>
		<path d="M93.8,47.7h-0.9v5.6h0.9V47.7L93.8,47.7z M92.8,46.2h1v-1h-1V46.2L92.8,46.2z"/>
		<path d="M99.4,53.3v-3.9c0-1.1-0.3-1.8-1.5-1.8c-0.7,0-1.2,0.2-1.5,0.8h0v-0.7h-1c0,0.4,0.1,0.8,0.1,1.2v4.5h0.9V50
			c0-0.8,0.1-1.7,1.2-1.7c0.8,0,1,0.5,1,1.1v3.9H99.4L99.4,53.3z"/>
		<path d="M101.9,47.7h-0.9v5.6h0.9V47.7L101.9,47.7z M100.9,46.2h1v-1h-1V46.2L100.9,46.2z"/>
		<path d="M107.1,51.7c0-1.7-2.8-1.7-2.8-2.7c0-0.5,0.4-0.8,0.9-0.8c0.6,0,0.9,0.3,0.9,0.9h1c0.1-1.1-0.8-1.6-1.8-1.6
			c-1.6,0-1.9,1-1.9,1.5c0,1.7,2.8,1.7,2.8,2.7c0,0.6-0.4,0.9-1,0.9c-0.9,0-0.9-0.8-0.9-1.1h-1c0,1.3,0.7,1.8,1.9,1.8
			C106.2,53.4,107.1,52.9,107.1,51.7L107.1,51.7z"/>
		<path d="M107.6,47.7v0.7h0.9v4c0,0.6,0.4,1,1.3,1c0.3,0,0.6-0.1,0.9-0.1v-0.7c-0.2,0-0.3,0-0.4,0c-0.8,0-0.8-0.5-0.8-0.8v-3.5h1.2
			v-0.7h-1.2v-1.5l-0.9,0.4v1.1H107.6L107.6,47.7z"/>
		<path d="M112.5,47.7h-0.9v5.6h0.9V50c0-0.8,0.3-1.5,1.3-1.5c0.2,0,0.3,0,0.5,0.1v-1c-0.9,0-1.4,0.1-1.7,1h0V47.7L112.5,47.7z"/>
		<polygon points="115.6,47.7 114.5,47.7 116.4,53.3 115.8,55.4 116.7,55.4 119.3,47.7 118.3,47.7 117,52.3 116.9,52.3 115.6,47.7 
					"/>
		<g>
			<path d="M48,23.8V24c0,0.7,0.4,0.9,0.8,0.9c0.5,0,0.9-0.2,0.9-0.8c0-1.1-2.3-1-2.3-2.5c0-0.9,0.6-1.4,1.5-1.4
				c0.9,0,1.4,0.4,1.4,1.5h-0.7c0-0.6-0.2-0.9-0.8-0.9c-0.4,0-0.8,0.2-0.8,0.7c0,1.1,2.3,0.9,2.3,2.6c0,1.1-0.7,1.4-1.6,1.4
				c-1.5,0-1.5-1.1-1.5-1.6H48z"/>
			<path d="M51.4,25.3v-5h1.5c0.7,0,1.4,0.3,1.4,1.4c0,1.1-0.9,1.4-1.4,1.4h-0.8v2.2H51.4z M52.1,22.5h0.7c0.3,0,0.9-0.1,0.9-0.9
				c0-0.8-0.6-0.8-0.7-0.8h-0.9V22.5z"/>
			<path d="M55.2,23.5v-1.7c0-1,0.5-1.6,1.6-1.6c1.1,0,1.6,0.6,1.6,1.6v1.7c0,1.4-0.5,1.9-1.6,1.9C55.7,25.4,55.2,24.9,55.2,23.5z
				 M57.7,23.5v-1.7c0-1.1-0.7-1.1-0.9-1.1s-0.9,0-0.9,1.1v1.7c0,1.1,0.3,1.4,0.9,1.4C57.4,24.9,57.7,24.6,57.7,23.5z"/>
			<path d="M63,20.3v5h-0.9l-2-4.4h0v4.4h-0.6v-5h0.9l2,4.3h0v-4.3H63z"/>
			<path d="M64.7,23.8V24c0,0.7,0.4,0.9,0.8,0.9c0.5,0,0.9-0.2,0.9-0.8c0-1.1-2.3-1-2.3-2.5c0-0.9,0.6-1.4,1.5-1.4
				c0.9,0,1.4,0.4,1.4,1.5h-0.7c0-0.6-0.2-0.9-0.8-0.9c-0.4,0-0.8,0.2-0.8,0.7c0,1.1,2.3,0.9,2.3,2.6c0,1.1-0.7,1.4-1.6,1.4
				c-1.5,0-1.5-1.1-1.5-1.6H64.7z"/>
			<path d="M68,23.5v-1.7c0-1,0.5-1.6,1.6-1.6c1.1,0,1.6,0.6,1.6,1.6v1.7c0,1.4-0.5,1.9-1.6,1.9C68.6,25.4,68,24.9,68,23.5z
				 M70.6,23.5v-1.7c0-1.1-0.7-1.1-0.9-1.1c-0.2,0-0.9,0-0.9,1.1v1.7c0,1.1,0.3,1.4,0.9,1.4C70.2,24.9,70.6,24.6,70.6,23.5z"/>
			<path d="M73,23v2.3h-0.6v-5h1.7c0.9,0,1.2,0.6,1.2,1.3c0,0.6-0.3,1-0.9,1.2v0c0.6,0.1,0.8,0.3,0.8,1.3c0,0.2,0.1,1,0.2,1.3h-0.7
				c-0.2-0.3-0.1-1-0.2-1.7c0-0.6-0.5-0.6-0.8-0.6H73z M73,22.4h1c0.5,0,0.7-0.4,0.7-0.8c0-0.4-0.2-0.8-0.7-0.8h-1V22.4z"/>
			<path d="M76.2,25.3v-5h2.6v0.6h-2v1.6h1.8V23h-1.8v1.7h2v0.6H76.2z"/>
			<path d="M79.7,20.3h1.6c0.6,0,1.1,0.2,1.4,0.8c0.2,0.4,0.2,1.4,0.2,1.6c0,1.1-0.1,1.7-0.3,2c-0.3,0.4-0.8,0.6-1.7,0.6h-1.2V20.3z
				 M80.4,24.8H81c0.9,0,1.2-0.3,1.2-1.5v-1c0-1-0.3-1.4-1-1.4h-0.8V24.8z"/>
			<path d="M85.6,25.3v-5h1.6c0.7,0,0.9,0.2,1.1,0.5c0.2,0.3,0.2,0.6,0.2,0.7c0,0.6-0.2,1-0.9,1.2v0c0.7,0.1,1,0.5,1,1.2
				c0,1.3-0.9,1.4-1.5,1.4H85.6z M86.2,22.4h0.9c0.5,0,0.7-0.3,0.7-0.8c0-0.4-0.2-0.8-0.8-0.8h-0.9V22.4z M86.2,24.8h0.9
				c0.7,0,0.9-0.5,0.9-0.9c0-0.8-0.5-0.9-1.2-0.9h-0.7V24.8z"/>
			<path d="M92,20.3h0.7l-1.4,3.1v1.9h-0.6v-1.9l-1.4-3.1H90l1,2.4L92,20.3z"/>
			<path d="M97.7,20.3v0.6h-1.3v4.5h-0.6v-4.5h-1.3v-0.6H97.7z"/>
			<path d="M98.4,25.3v-5H99v2.2h1.8v-2.2h0.6v5h-0.6V23H99v2.3H98.4z"/>
			<path d="M102.6,25.3v-5h2.6v0.6h-2v1.6h1.8V23h-1.8v1.7h2v0.6H102.6z"/>
		</g>
	</g>
</g>
</svg>
