<?xml version="1.0" encoding="UTF-8" standalone="no"?>
<svg
        xmlns="http://www.w3.org/2000/svg"
        version="1.0"
        width="576"
        height="178"
        viewBox="-0.499 -0.69 576 178"
        id="svg2"
        xml:space="preserve">
	<defs
   id="defs4">
	</defs>
	<g
   transform="matrix(0.9826014,0,0,0.9434645,6,4)"
   id="g6">
		<path
   d="M 134.795,85.102 C 94.374,75.8 88.374,97.79 49.011,85.623 L 42.791,119.042 L 0,61.037 L 65.016,0 L 59.094,30.771 C 98.457,42.938 103.879,23.145 144.3,32.45 L 134.795,85.102 z"
   id="path8"
   style="fill:#0076be" />
		<path
   d="M 53.449,91.852 C 93.871,101.157 99.646,79.166 139.012,91.336 L 145.232,57.911 L 187.802,115.919 L 122.351,176.88 L 128.329,146.206 C 88.966,134.036 83.941,155.845 43.519,146.54 L 53.449,91.852 z"
   id="path10"
   style="fill:#72b61a" />
		<path
   d="M 242.799,116.499 L 235.245,116.499 L 233.358,93.583 C 233.184,91.33 233.184,88.966 233.298,86.604 L 233.241,86.604 C 232.497,88.913 231.583,91.166 230.496,93.471 L 219.564,116.498 L 212.295,116.498 L 209.89,79.405 L 216.129,79.405 L 217.56,101.99 C 217.731,104.46 217.617,106.824 217.503,109.244 L 217.56,109.244 C 218.476,106.88 219.391,104.46 220.479,102.154 L 231.411,79.405 L 238.164,79.405 L 240.339,102.207 C 240.51,104.296 240.566,106.713 240.453,109.133 L 240.51,109.133 C 241.31,106.824 242.111,104.791 243.087,102.594 L 253.616,79.406 L 260.028,79.406 L 242.799,116.499 z M 276.555,93.803 C 275.524,93.528 274.323,93.311 272.893,93.311 C 265.279,93.311 262.075,101.277 262.075,107.596 C 262.075,110.728 263.046,112.049 264.649,112.049 C 269.457,112.049 274.894,101.991 276.154,95.78 L 276.555,93.803 M 283.367,89.572 C 280.56,103.473 279.304,109.737 278.099,116.496 L 272.149,116.496 C 272.662,114.243 273.637,111.003 275.181,106.497 L 275.067,106.441 C 272.893,110.563 268.771,117.102 262.361,117.102 C 258.183,117.102 255.892,114.465 255.892,108.638 C 255.892,98.472 261.444,88.745 273.921,88.745 C 277.244,88.746 280.446,89.021 283.367,89.572 M 305.333,89.077 C 303.903,88.802 302.356,88.64 300.467,88.64 C 292.741,88.64 288.792,92.428 288.792,97.209 C 288.792,103.748 296.802,104.519 296.802,108.529 C 296.802,110.999 294.57,112.267 291.195,112.267 C 289.648,112.267 288.104,111.989 286.677,111.552 L 285.643,116.606 C 287.076,116.878 288.62,117.045 290.509,117.045 C 298.923,117.045 303.101,112.483 303.101,107.925 C 303.101,101.878 295.033,100.504 295.033,96.602 C 295.033,94.516 296.747,93.086 300.125,93.086 C 301.499,93.086 302.932,93.25 304.191,93.692 L 305.333,89.077 z M 327.025,89.077 C 325.592,88.802 324.048,88.64 322.156,88.64 C 314.433,88.64 310.481,92.428 310.481,97.209 C 310.481,103.748 318.494,104.519 318.494,108.529 C 318.494,110.999 316.262,112.267 312.887,112.267 C 311.343,112.267 309.793,111.989 308.364,111.552 L 307.336,116.606 C 308.769,116.878 310.31,117.045 312.202,117.045 C 320.613,117.045 324.794,112.483 324.794,107.925 C 324.794,101.878 316.723,100.504 316.723,96.602 C 316.723,94.516 318.437,93.086 321.818,93.086 C 323.189,93.086 324.622,93.25 325.879,93.692 L 327.025,89.077 z M 348.828,95.836 C 348.828,94.023 347.513,93.032 345.394,93.032 C 341.275,93.032 338.527,96.606 337.378,100.781 C 345.166,100.506 348.828,98.971 348.828,95.836 M 354.839,95.065 C 354.839,101.22 348.37,104.463 336.637,104.847 C 336.523,105.562 336.408,106.769 336.408,107.595 C 336.408,111.333 337.841,112.324 342.13,112.324 C 344.819,112.324 347.737,111.718 350.26,110.727 L 350.26,115.344 C 347.339,116.387 343.847,117.046 340.126,117.046 C 333.262,117.046 330.282,114.134 330.282,107.979 C 330.282,97.042 336.921,88.637 346.079,88.637 C 352.607,88.638 354.839,91.825 354.839,95.065 M 377.785,88.638 C 372.576,87.812 369.312,92.212 366.166,98.476 L 366.049,98.417 C 367.596,94.134 368.34,91.438 368.741,89.186 L 362.902,89.186 C 362.158,93.255 361.185,98.365 360.441,102.211 L 357.579,116.496 L 363.591,116.496 L 364.789,110.455 C 366.45,102.102 371.773,92.979 376.525,94.298 L 377.785,88.638 z M 399.001,98.089 C 399.001,94.957 398.022,93.636 396.423,93.636 C 391.612,93.636 386.119,103.694 384.915,109.793 L 384.517,111.879 C 385.604,112.157 386.749,112.374 388.179,112.374 C 395.791,112.374 399.001,104.408 399.001,98.089 M 405.177,97.046 C 405.177,107.212 399.628,116.939 387.148,116.939 C 383.603,116.939 380.509,116.608 377.706,116.001 L 385.604,76.383 L 391.56,76.383 L 389.096,88.913 C 388.642,91.166 387.892,93.583 385.95,99.132 L 386.064,99.188 C 388.923,93.144 393.218,88.583 398.656,88.583 C 402.892,88.582 405.177,91.219 405.177,97.046 M 427.203,95.836 C 427.203,94.023 425.888,93.032 423.769,93.032 C 419.647,93.032 416.902,96.606 415.756,100.781 C 423.541,100.506 427.203,98.971 427.203,95.836 M 433.214,95.065 C 433.214,101.22 426.745,104.463 415.012,104.847 C 414.898,105.562 414.786,106.769 414.786,107.595 C 414.786,111.333 416.216,112.324 420.508,112.324 C 423.195,112.324 426.115,111.718 428.635,110.727 L 428.635,115.344 C 425.717,116.387 422.225,117.046 418.504,117.046 C 411.637,117.046 408.657,114.134 408.657,107.979 C 408.657,97.042 415.296,88.637 424.454,88.637 C 430.982,88.638 433.214,91.825 433.214,95.065 M 455.873,89.188 L 448.549,89.188 L 450.553,79.242 L 444.313,80.505 L 442.596,89.189 L 437.27,89.189 L 436.297,93.748 L 441.676,93.748 L 438.875,107.925 C 437.56,114.3 439.218,116.992 445.168,116.992 C 446.832,116.992 448.947,116.772 450.723,116.388 L 451.18,111.607 C 450.093,111.827 448.948,111.991 447.401,111.991 C 444.829,111.991 444.255,110.948 444.999,107.157 L 447.636,93.748 L 454.902,93.748 L 455.873,89.188 z M 477.104,88.638 C 471.898,87.812 468.634,92.212 465.488,98.476 L 465.371,98.417 C 466.918,94.134 467.662,91.438 468.063,89.186 L 462.224,89.186 C 461.48,93.255 460.507,98.365 459.763,102.211 L 456.898,116.496 L 462.91,116.496 L 464.111,110.455 C 465.775,102.102 471.095,92.979 475.844,94.298 L 477.104,88.638 z M 482.922,116.496 L 476.913,116.496 L 482.351,89.188 L 488.363,89.188 L 482.922,116.496 z M 490.765,81.22 C 490.706,83.473 488.761,85.119 486.643,85.119 C 484.466,85.119 482.922,83.473 482.978,81.603 C 483.037,79.403 484.982,77.756 487.159,77.756 C 489.277,77.757 490.821,79.351 490.765,81.22 M 510.388,95.836 C 510.388,94.023 509.07,93.032 506.954,93.032 C 502.829,93.032 500.087,96.606 498.938,100.781 C 506.726,100.506 510.388,98.971 510.388,95.836 M 516.397,95.065 C 516.397,101.22 509.931,104.463 498.195,104.847 C 498.084,105.562 497.966,106.769 497.966,107.595 C 497.966,111.333 499.399,112.324 503.691,112.324 C 506.38,112.324 509.298,111.718 511.818,110.727 L 511.818,115.344 C 508.9,116.387 505.408,117.046 501.687,117.046 C 494.82,117.046 491.843,114.134 491.843,107.979 C 491.843,97.042 498.482,88.637 507.64,88.637 C 514.165,88.638 516.397,91.825 516.397,95.065 M 540.543,98.089 C 540.543,94.957 539.57,93.636 537.968,93.636 C 533.16,93.636 527.667,103.694 526.466,109.793 L 526.065,111.879 C 527.152,112.157 528.297,112.374 529.73,112.374 C 537.341,112.374 540.543,104.408 540.543,98.089 M 546.728,97.046 C 546.728,107.212 541.173,116.939 528.696,116.939 C 525.148,116.939 522.057,116.608 519.254,116.001 L 527.152,76.383 L 533.105,76.383 L 530.644,88.913 C 530.184,91.166 529.44,93.583 527.498,99.132 L 527.609,99.188 C 530.474,93.144 534.763,88.583 540.201,88.583 C 544.437,88.582 546.728,91.219 546.728,97.046 M 568.753,95.836 C 568.753,94.023 567.435,93.032 565.316,93.032 C 561.194,93.032 558.449,96.606 557.303,100.781 C 565.088,100.506 568.753,98.971 568.753,95.836 M 574.759,95.065 C 574.759,101.22 568.29,104.463 556.56,104.847 C 556.446,105.562 556.331,106.769 556.331,107.595 C 556.331,111.333 557.761,112.324 562.056,112.324 C 564.743,112.324 567.663,111.718 570.183,110.727 L 570.183,115.344 C 567.265,116.387 563.773,117.046 560.052,117.046 C 553.179,117.046 550.205,114.134 550.205,107.979 C 550.205,97.042 556.844,88.637 566.005,88.637 C 572.527,88.638 574.759,91.825 574.759,95.065 M 195.042,55.178 C 195.042,59.244 191.664,62.76 185.37,62.76 C 183.537,62.76 182.049,62.652 181.135,62.485 L 183.48,50.672 C 184.338,50.616 186.228,50.616 187.659,50.616 C 192.696,50.616 195.042,52.21 195.042,55.178 M 197.616,38.859 C 197.616,43.473 193.267,46.169 187.371,46.169 C 186.228,46.169 185.37,46.169 184.339,46.11 L 186.57,35.121 C 188.001,35.068 189.664,35.013 191.436,35.013 C 196.128,35.013 197.616,36.551 197.616,38.859 M 204.142,37.541 C 204.142,32.868 200.421,30.231 193.038,30.231 C 188.687,30.231 184.338,30.342 181.362,30.398 L 174.039,67.485 C 178.215,67.541 182.049,67.652 184.513,67.652 C 195.385,67.652 201.567,61.661 201.567,54.738 C 201.567,51.55 199.563,48.694 196.128,47.926 L 196.128,47.867 C 200.307,46.33 204.142,42.926 204.142,37.541 M 224.837,46.825 C 224.837,49.957 221.173,51.495 213.392,51.77 C 214.535,47.595 217.283,44.021 221.402,44.021 C 223.521,44.021 224.837,45.012 224.837,46.825 M 230.846,46.058 C 230.846,42.815 228.614,39.627 222.089,39.627 C 212.932,39.627 206.294,48.035 206.294,58.969 C 206.294,65.121 209.271,68.036 216.138,68.036 C 219.857,68.036 223.349,67.374 226.269,66.331 L 226.269,61.717 C 223.752,62.707 220.833,63.311 218.142,63.311 C 213.849,63.311 212.417,62.321 212.417,58.585 C 212.417,57.759 212.531,56.552 212.648,55.837 C 224.379,55.453 230.846,52.21 230.846,46.058 M 253.79,39.627 C 248.582,38.804 245.322,43.198 242.172,49.462 L 242.058,49.409 C 243.602,45.123 244.346,42.43 244.749,40.178 L 238.91,40.178 C 238.166,44.244 237.195,49.354 236.451,53.2 L 233.589,67.485 L 239.598,67.485 L 240.799,61.441 C 242.46,53.088 247.782,43.968 252.531,45.287 L 253.79,39.627 z M 267.564,27.375 L 261.555,27.375 L 253.598,67.485 L 259.607,67.485 L 267.564,27.375 z M 279.746,40.178 L 273.74,40.178 L 268.3,67.486 L 274.312,67.486 L 279.746,40.178 z M 282.148,32.212 C 282.207,30.343 280.663,28.749 278.544,28.749 C 276.37,28.749 274.425,30.398 274.366,32.596 C 274.31,34.465 275.854,36.112 278.028,36.112 C 280.144,36.111 282.092,34.465 282.148,32.212 M 310.185,48.806 C 311.269,43.254 309.555,39.575 304.176,39.575 C 298.451,39.575 294.218,44.576 291.529,49.961 L 291.412,49.902 C 293.246,44.793 293.99,41.881 294.333,40.181 L 288.383,40.181 C 287.75,43.861 286.833,48.639 285.916,53.201 L 283.057,67.486 L 289.066,67.486 L 290.326,61.003 C 291.586,54.408 297.193,44.629 301.772,44.629 C 304.004,44.629 304.749,46.275 303.949,50.181 L 300.457,67.487 L 306.466,67.487 L 310.185,48.806 z M 333.857,46.825 C 333.857,49.957 330.195,51.495 322.414,51.77 C 323.557,47.595 326.305,44.021 330.424,44.021 C 332.539,44.021 333.857,45.012 333.857,46.825 M 339.866,46.058 C 339.866,42.815 337.637,39.627 331.109,39.627 C 321.954,39.627 315.315,48.035 315.315,58.969 C 315.315,65.121 318.289,68.036 325.156,68.036 C 328.877,68.036 332.369,67.374 335.287,66.331 L 335.287,61.717 C 332.767,62.707 329.852,63.311 327.16,63.311 C 322.868,63.311 321.438,62.321 321.438,58.585 C 321.438,57.759 321.552,56.552 321.669,55.837 C 333.4,55.453 339.866,52.21 339.866,46.058 M 362.811,39.627 C 357.602,38.804 354.341,43.198 351.192,49.462 L 351.078,49.409 C 352.622,45.123 353.366,42.43 353.767,40.178 L 347.931,40.178 C 347.187,44.244 346.214,49.354 345.47,53.2 L 342.608,67.485 L 348.617,67.485 L 349.818,61.441 C 351.479,53.088 356.802,43.968 361.548,45.287 L 362.811,39.627 z"
   id="path12"
   style="fill:#0076be" />
	</g>
</svg>