<?xml version="1.0" encoding="utf-8"?>
<!-- Generator: Adobe Illustrator 21.0.0, SVG Export Plug-In . SVG Version: 6.00 Build 0)  -->
<svg version="1.1" id="Ebene_1" xmlns="http://www.w3.org/2000/svg" x="0px" y="0px"
     width="477" height="101">
<style type="text/css">
	.st0{fill:#009BD9;}
	.st1{fill-rule:evenodd;clip-rule:evenodd;fill:#009BD9;}
</style>
<g transform="translate(-59, -372)">
	<g>
		<path class="st0" d="M532.6,451.2c-4.8,9.3-14.6,15.7-25.8,15.7h-0.6c-7.3,0-14-2.7-19.1-7.2c-0.6-0.5-1.3-0.8-2.2-0.8
			c-0.8,0-1.6,0.3-2.2,0.8c-5.1,4.4-11.8,7.1-19.1,7.1h-0.6c-12.4,0-22.9-7.7-27.1-18.6c23.6,0.2,36.2,8,62.7,8.6
			C510.7,457.1,523,454.3,532.6,451.2L532.6,451.2z M495.3,380.8v52.3c0,5.3,4.3,9.7,9.7,9.7h1.4c5.3,0,9.7-4.3,9.7-9.7v-53
			c7.2-1,14-2.6,19.8-4.3v62c0,1.8-0.2,3.6-0.5,5.4c-10,3.6-23.5,7.3-36.9,7c-25.2-0.6-36.9-8.1-62.6-8.6c-0.5,0-1,0-1.5,0
			c-0.2-1.2-0.2-2.5-0.2-3.7v-67.4c0.8,0,1.6,0,2.4,0.1l0.4,0l0.3,0c6.7,0.5,12.2,1.4,17.2,2.4v60.2c0,5.3,4.3,9.7,9.7,9.7h1.4
			c5.3,0,9.7-4.3,9.7-9.7v-55.4C481,379.1,487.4,380.2,495.3,380.8L495.3,380.8z"/>
		<path class="st0" d="M434.4,448.2v17.4h-28.3H396h-10.5v-9.7C396.5,452.7,415.2,448.3,434.4,448.2L434.4,448.2z M406.1,373.1V444
			c-8,1.3-15.1,3-20.6,4.4v-70.2l0.9-0.3c0,0,4.2-1.4,10.9-3C399.9,374.3,402.8,373.7,406.1,373.1L406.1,373.1z"/>
		<path class="st1" d="M309.8,466.5c-0.4,3.2-2.6,5-6.8,5c-1.4,0-2.6-0.2-4.8-0.9l0.3-2.3c1.9,0.9,3,1.2,4.8,1.2c2.1,0,3.5-1.1,4-3
			H309.8L309.8,466.5z M357.7,466.5c-0.4,3.2-2.6,5-6.8,5c-1.4,0-2.6-0.2-4.8-0.9l0.3-2.3c1.9,0.9,3,1.2,4.8,1.2
			c2.1,0,3.5-1.1,3.9-3H357.7L357.7,466.5z"/>
		<path class="st1" d="M61.4,461.5v1.9h7.6v2.3H58.8v-4.2H61.4L61.4,461.5z M73.4,461.5c0,0.1,0,0.2,0,0.4c0,1.4,1.4,2.2,2.5,2.2
			c2,0,3.2-1,3.6-2.5l2.6,0v1.6c0,1.5,0.1,2.2,0.1,2.6h-2.3V464c-0.6,0.8-1.9,2-4.2,2c-2.9,0-4.9-1.3-4.9-4.2c0-0.1,0-0.2,0-0.4
			L73.4,461.5L73.4,461.5z M88.6,461.5v4.2h-2.5v-4.2H88.6L88.6,461.5z M98,461.5v4.2h-2.5v-4.2H98L98,461.5z M104.3,461.5
			c0.5,1.4,1.6,2.5,3.2,2.5c1.8,0,2.9-1.1,3.5-2.5l2.9,0v4.2h-2.4v-1.9c-0.7,1-2.2,2.2-4.6,2.2c-3,0-4.7-2-5.4-4.5L104.3,461.5
			L104.3,461.5z M120.2,461.5c0.7,1.6,2.3,2.5,4,2.5c1.6,0,3.5-0.8,4.1-1.3v2.4c-0.9,0.3-2,0.9-4.2,0.9c-3.7,0-5.8-1.7-6.6-4.5
			L120.2,461.5L120.2,461.5z M139.8,461.5c0,0.1,0,0.2,0,0.4c0,2.9-2.3,4.2-4.6,4.2c-1.3,0-2.5-0.1-3.7-0.7l0.1-2.2
			c1,0.6,2.3,0.9,3.1,0.9c1.1,0,2.5-0.5,2.5-1.9c0-0.2-0.1-0.4-0.1-0.6L139.8,461.5L139.8,461.5z M146.2,461.5l0.5,1.9l0.6-1.9h2.1
			l-1.3,4.2h-2.9l-1.3-4.2H146.2L146.2,461.5z M155.9,461.5l0.6,1.9l0.6-1.9h2.2l-1.3,4.2H155l-1.3-4.2H155.9L155.9,461.5z
			 M166.3,461.5c0,0.1,0,0.2,0,0.4c0,1.4,1.4,2.2,2.5,2.2c2,0,3.2-1,3.6-2.5l2.6,0v1.6c0,1.5,0.1,2.2,0.1,2.6h-2.3V464
			c-0.6,0.8-1.9,2-4.2,2c-2.9,0-4.9-1.3-4.9-4.2c0-0.1,0-0.2,0-0.4L166.3,461.5L166.3,461.5z M186.2,461.5c0,0.1,0,0.2,0,0.4
			c0,2.9-2.3,4.2-4.6,4.2c-1.3,0-2.5-0.1-3.7-0.7l0.1-2.2c1,0.6,2.4,0.9,3.1,0.9c1.1,0,2.5-0.5,2.5-1.9c0-0.2-0.1-0.4-0.1-0.6
			L186.2,461.5L186.2,461.5z M196.4,461.5c0,0.1,0,0.2,0,0.4c0,2.9-2.3,4.2-4.6,4.2c-1.3,0-2.5-0.1-3.7-0.7l0.1-2.2
			c1,0.6,2.4,0.9,3.1,0.9c1.1,0,2.5-0.5,2.5-1.9c0-0.2-0.1-0.4-0.1-0.6L196.4,461.5L196.4,461.5z M201.5,461.5
			c0.7,1.6,2.3,2.5,4,2.5c1.6,0,3.5-0.8,4.1-1.3v2.4c-0.9,0.3-2,0.9-4.2,0.9c-3.7,0-5.8-1.7-6.6-4.5L201.5,461.5L201.5,461.5z
			 M216.4,461.5v4.2h-2.5v-4.2H216.4L216.4,461.5z M228,461.5l0.6,1.8l0.6-1.8h2.3l-1.5,4.2h-2.9l-1.5-4.2H228L228,461.5z
			 M239.3,461.5c0.7,1.6,2.3,2.5,4,2.5c1.6,0,3.5-0.8,4.1-1.3v2.4c-1,0.3-2,0.9-4.2,0.9c-3.7,0-5.8-1.7-6.6-4.5L239.3,461.5
			L239.3,461.5z M254.1,461.5v4.2h-2.5v-4.2H254.1L254.1,461.5z M269,461.5c0,0.1,0,0.2,0,0.4c0,2.9-2.3,4.2-4.7,4.2
			c-1.3,0-2.5-0.1-3.7-0.7l0.1-2.2c1,0.6,2.4,0.9,3.1,0.9c1.1,0,2.5-0.5,2.5-1.9c0-0.2-0.1-0.4-0.1-0.6L269,461.5L269,461.5z
			 M274.2,461.5c0.6,1.4,1.8,2.5,3.7,2.5c1.9,0,3.1-1.1,3.7-2.5l2.7,0c-0.9,2.6-3.3,4.5-6.4,4.5c-3.1,0-5.5-1.9-6.4-4.5L274.2,461.5
			L274.2,461.5z M290.4,461.5v4.2h-2.5v-4.2H290.4L290.4,461.5z M300.3,461.5c0.6,1.3,1.7,2.2,3.2,2.2c1.5,0,2.7-0.9,3.4-2.2l3,0
			v3.6c0,0.5,0,0.9-0.1,1.4l-2.5,0c0.1-0.5,0.2-1,0.2-1.5v-1.3c-1.1,1.4-2.8,2.1-4.5,2.1c-2.9,0-4.7-1.8-5.4-4.2L300.3,461.5
			L300.3,461.5z M316.7,461.5c0.3,1.6,1.1,2.4,2.6,2.5c1.8,0,3-1,3.6-2.5l2.9,0v4.2h-2.4v-2.1c-0.8,1.5-2.6,2.4-4.4,2.4
			c-3,0-4.6-1.7-4.9-4.5L316.7,461.5L316.7,461.5z M332.5,461.5v4.2H330v-4.2H332.5L332.5,461.5z M341.8,461.5v4.2h-2.5v-4.2H341.8
			L341.8,461.5z M348.2,461.5c0.6,1.3,1.7,2.2,3.2,2.2c1.5,0,2.7-0.9,3.4-2.2l3,0v3.6c0,0.5,0,0.9-0.1,1.4l-2.5,0
			c0.1-0.5,0.2-1,0.2-1.5v-1.3c-1.1,1.4-2.8,2.1-4.5,2.1c-2.9,0-4.7-1.8-5.4-4.2L348.2,461.5L348.2,461.5z"/>
		<path class="st1" d="M61.4,455.5v6h-2.6v-6H61.4L61.4,455.5z M81.8,455.5c0.1,0.6,0.2,1.3,0.2,2.1v3.9h-2.6c0.1-0.3,0.1-0.6,0.1-1
			v-1.2c-0.5,0-1-0.1-1.6-0.1c-1.3,0-4.3,0.2-4.6,2.2l-2.6,0c0.3-3.1,3.7-4,6.2-4l2.6,0.1c0-0.8-0.1-1.5-0.4-2H81.8L81.8,455.5z
			 M89.7,455.5c-0.7,1-1,2.4-1,4v2h-2.5v-6H89.7L89.7,455.5z M97.7,455.5c0.2,0.7,0.3,1.4,0.3,2.3v3.7h-2.5v-2.7
			c0-1.4-0.1-2.5-0.5-3.3L97.7,455.5L97.7,455.5z M104.8,455.5c-0.6,0.9-0.9,2.2-0.9,3.5c0,0.8,0.1,1.7,0.4,2.5l-2.7,0
			c-0.2-0.9-0.3-1.8-0.3-2.7c0-1.2,0.2-2.3,0.6-3.3L104.8,455.5L104.8,455.5z M113.9,455.5v6H111c0.3-0.8,0.5-1.6,0.5-2.4
			c0-1.3-0.3-2.6-1.1-3.6L113.9,455.5L113.9,455.5z M120.6,455.5c-0.5,0.7-0.7,1.5-0.8,2.3h6.9c0-0.8-0.2-1.6-0.6-2.3l2.6,0
			c0.4,1.2,0.6,2.6,0.6,4.1h-9.5c0,0.7,0.1,1.3,0.4,1.9l-2.7,0c-0.2-0.8-0.3-1.7-0.3-2.7c0-1.2,0.2-2.4,0.7-3.3L120.6,455.5
			L120.6,455.5z M134.1,455.5c0,0.1,0,0.1,0,0.2c0,2.6,5.4,2,5.8,5.8l-2.7,0c-0.9-1.8-5.6-2-5.6-5.3c0-0.2,0-0.5,0-0.7L134.1,455.5
			L134.1,455.5z M144.6,455.5l1.7,6h-2.3l-1.9-6H144.6L144.6,455.5z M151.3,455.5l-1.8,6h-2.1l1.9-6H151.3L151.3,455.5z
			 M154.1,455.5l1.8,6h-2.2l-1.9-6H154.1L154.1,455.5z M161.1,455.5l-1.9,6H157l1.8-6H161.1L161.1,455.5z M174.7,455.5
			c0.1,0.6,0.2,1.3,0.2,2.1v3.9h-2.6c0.1-0.3,0.1-0.6,0.1-1v-1.2c-0.5,0-1-0.1-1.6-0.1c-1.3,0-4.3,0.2-4.6,2.2l-2.6,0
			c0.3-3.1,3.7-4,6.2-4l2.6,0.1c0-0.8-0.1-1.5-0.4-2H174.7L174.7,455.5z M180.5,455.5c0,0.1,0,0.1,0,0.2c0,2.6,5.4,2,5.8,5.8l-2.7,0
			c-0.9-1.8-5.6-2-5.6-5.3c0-0.2,0-0.5,0-0.7L180.5,455.5L180.5,455.5z M190.7,455.5c0,0.1,0,0.1,0,0.2c0,2.6,5.4,2,5.8,5.8l-2.7,0
			c-0.9-1.8-5.6-2-5.6-5.3c0-0.2,0-0.5,0-0.7L190.7,455.5L190.7,455.5z M201.9,455.5c-0.5,0.7-0.7,1.5-0.8,2.3h6.9
			c0-0.8-0.2-1.6-0.6-2.3l2.6,0c0.4,1.2,0.6,2.6,0.6,4.1h-9.5c0,0.7,0.1,1.3,0.4,1.9l-2.7,0c-0.2-0.8-0.3-1.7-0.3-2.7
			c0-1.2,0.2-2.4,0.7-3.3L201.9,455.5L201.9,455.5z M217.5,455.5c-0.7,0.9-1.1,2.4-1.1,4.1v1.9h-2.5v-6H217.5L217.5,455.5z
			 M226,455.5l2,6h-2.4l-2.2-6H226L226,455.5z M233.6,455.5l-2.2,6h-2.3l2.1-6H233.6L233.6,455.5z M239.6,455.5
			c-0.5,0.7-0.7,1.5-0.8,2.3h6.9c0-0.8-0.2-1.6-0.6-2.3l2.6,0c0.4,1.2,0.6,2.6,0.6,4.1h-9.5c0,0.7,0.1,1.3,0.4,1.9l-2.7,0
			c-0.2-0.8-0.3-1.7-0.3-2.7c0-1.2,0.2-2.4,0.7-3.3L239.6,455.5L239.6,455.5z M255.2,455.5c-0.7,0.9-1.1,2.4-1.1,4.1v1.9h-2.5v-6
			H255.2L255.2,455.5z M263.2,455.5c0,0.1,0,0.1,0,0.2c0,2.6,5.4,2,5.8,5.8l-2.7,0c-0.9-1.8-5.6-2-5.6-5.3c0-0.2,0-0.5,0-0.7
			L263.2,455.5L263.2,455.5z M274.9,455.5c-0.8,0.9-1.2,2.2-1.2,3.5c0,0.8,0.2,1.7,0.5,2.5l-2.7,0c-0.3-0.8-0.4-1.6-0.4-2.5
			c0-1.3,0.3-2.5,0.8-3.5H274.9L274.9,455.5z M283.8,455.5c0.5,1,0.8,2.2,0.8,3.5c0,0.9-0.1,1.7-0.4,2.5l-2.7,0
			c0.3-0.8,0.5-1.6,0.5-2.5c0-1.3-0.4-2.6-1.2-3.5L283.8,455.5L283.8,455.5z M291.5,455.5c-0.7,0.9-1.1,2.4-1.1,4.1v1.9h-2.5v-6
			H291.5L291.5,455.5z M300.9,455.5c-0.7,1-1,2.3-1,3.5c0,0.9,0.2,1.8,0.5,2.5l-2.8,0c-0.2-0.7-0.3-1.5-0.3-2.4
			c0-1.2,0.3-2.5,0.8-3.6L300.9,455.5L300.9,455.5z M309.9,455.5v6h-3c0.3-0.7,0.5-1.5,0.5-2.3c0-1.4-0.3-2.7-1-3.7L309.9,455.5
			L309.9,455.5z M316.5,455.5v3.8c0,0.9,0.1,1.6,0.2,2.2l-2.6,0c0-0.4-0.1-0.8-0.1-1.2v-4.8H316.5L316.5,455.5z M325.8,455.5v6h-2.9
			c0.3-0.8,0.5-1.8,0.5-3v-3H325.8L325.8,455.5z M333.5,455.5c-0.7,1-1,2.4-1,4v2H330v-6H333.5L333.5,455.5z M341.5,455.5
			c0.2,0.7,0.3,1.4,0.3,2.3v3.7h-2.5v-2.7c0-1.4-0.1-2.5-0.5-3.3L341.5,455.5L341.5,455.5z M348.7,455.5c-0.7,1-1,2.3-1,3.5
			c0,0.9,0.2,1.8,0.5,2.5l-2.8,0c-0.2-0.7-0.3-1.5-0.3-2.4c0-1.2,0.3-2.5,0.8-3.6L348.7,455.5L348.7,455.5z M357.8,455.5v6h-3
			c0.3-0.7,0.5-1.5,0.5-2.3c0-1.4-0.3-2.7-1-3.7L357.8,455.5L357.8,455.5z"/>
		<path class="st1" d="M61.4,447.5v8h-2.6v-8H61.4L61.4,447.5z M113.9,447.5v8h-3.5c-0.7-0.9-1.6-1.5-2.9-1.5
			c-1.3,0-2.2,0.6-2.8,1.5h-2.9c0.8-2,2.5-3.4,5.1-3.4c2.3,0,3.7,0.9,4.4,2.1l0-6.7H113.9L113.9,447.5z M79.2,455.5
			c-0.4-1-1.4-1.5-2.9-1.5c-1.4,0-2.9,0.5-3.9,1.4l-0.1-2.1c1.2-0.7,2.7-1.3,4.4-1.3c3,0,4.6,1.2,5.1,3.4L79.2,455.5L79.2,455.5z
			 M86.2,455.5v-3.1h2.4v2.1c0.8-1.5,2.6-2.4,4.4-2.4c2.6,0,4.2,1.2,4.7,3.4l-2.7,0c-0.4-0.9-1.2-1.4-2.3-1.5c-1.4,0-2.3,0.5-3,1.4
			L86.2,455.5L86.2,455.5z M117.9,455.5c1-2.1,3-3.4,5.6-3.4c2.9,0,4.5,1.3,5.3,3.4h-2.6c-0.6-0.9-1.5-1.5-2.7-1.5
			c-1.3,0-2.2,0.6-2.8,1.5L117.9,455.5L117.9,455.5z M131.5,455.5c0.3-2.3,2.2-3.4,4.7-3.4c1.1,0,2.1,0.2,3,0.5l-0.2,2.1
			c-0.5-0.3-2-0.7-2.6-0.7c-1.2,0-2.2,0.5-2.3,1.5L131.5,455.5L131.5,455.5z M142,455.5l-1-3.1h2.7l0.9,3.1H142L142,455.5z
			 M149.2,455.5l1-3.1h2.9l0.9,3.1h-2.2l-0.3-1l-0.3,1H149.2L149.2,455.5z M158.8,455.5l0.9-3.1h2.4l-1,3.1H158.8L158.8,455.5z
			 M172.1,455.5c-0.4-1-1.4-1.5-2.9-1.5c-1.4,0-2.9,0.5-3.9,1.4l-0.1-2.1c1.2-0.7,2.7-1.3,4.4-1.3c3,0,4.6,1.2,5.1,3.4L172.1,455.5
			L172.1,455.5z M177.9,455.5c0.3-2.3,2.2-3.4,4.7-3.4c1.1,0,2.1,0.2,3,0.5l-0.2,2.1c-0.5-0.3-2-0.7-2.6-0.7c-1.2,0-2.2,0.5-2.3,1.5
			L177.9,455.5L177.9,455.5z M188.1,455.5c0.3-2.3,2.2-3.4,4.7-3.4c1.2,0,2.1,0.2,3.1,0.5l-0.2,2.1c-0.6-0.3-2-0.7-2.6-0.7
			c-1.2,0-2.2,0.5-2.3,1.5L188.1,455.5L188.1,455.5z M199.2,455.5c1-2.1,3-3.4,5.6-3.4c2.9,0,4.5,1.3,5.3,3.4h-2.6
			c-0.6-0.9-1.5-1.5-2.7-1.5c-1.3,0-2.2,0.6-2.8,1.5L199.2,455.5L199.2,455.5z M213.9,455.5v-3.1h2.3v2.1c0.7-1.4,2.1-2.4,3.5-2.4
			c0.7,0,1.1,0.1,1.6,0.2v2.2c-0.4-0.2-0.9-0.2-1.4-0.2c-1,0-1.9,0.5-2.5,1.3L213.9,455.5L213.9,455.5z M223.4,455.5l-1.1-3.1h2.7
			l1,3.1H223.4L223.4,455.5z M231.2,455.5l1.1-3.1h2.5l-1.1,3.1H231.2L231.2,455.5z M236.9,455.5c1-2.1,3-3.4,5.6-3.4
			c2.9,0,4.5,1.3,5.3,3.4h-2.6c-0.6-0.9-1.5-1.5-2.7-1.5c-1.3,0-2.2,0.6-2.8,1.5L236.9,455.5L236.9,455.5z M251.7,455.5v-3.1h2.3
			v2.1c0.7-1.4,2.1-2.4,3.5-2.4c0.7,0,1.1,0.1,1.6,0.2v2.2c-0.4-0.2-0.9-0.2-1.4-0.2c-1,0-1.9,0.5-2.5,1.3L251.7,455.5L251.7,455.5z
			 M260.7,455.5c0.3-2.3,2.2-3.4,4.7-3.4c1.1,0,2.1,0.2,3.1,0.5l-0.2,2.1c-0.6-0.3-2-0.7-2.6-0.7c-1.2,0-2.2,0.5-2.3,1.5
			L260.7,455.5L260.7,455.5z M271.9,455.5c1.1-2.1,3.2-3.4,6-3.4c2.7,0,4.8,1.3,5.9,3.4h-3c-0.7-0.9-1.7-1.5-3-1.5
			c-1.3,0-2.3,0.6-3,1.5L271.9,455.5L271.9,455.5z M287.9,455.5v-3.1h2.3v2.1c0.7-1.4,2.1-2.4,3.5-2.4c0.7,0,1.1,0.1,1.6,0.2v2.2
			c-0.5-0.2-0.9-0.2-1.4-0.2c-1,0-1.9,0.5-2.5,1.3L287.9,455.5L287.9,455.5z M298,455.5c0.9-2,2.6-3.4,5.2-3.4
			c2.3,0,3.7,0.9,4.4,2.3l0-2h2.3v3.1h-3.5c-0.6-0.9-1.6-1.5-2.9-1.5c-1.2,0-2.1,0.6-2.7,1.5L298,455.5L298,455.5z M314.1,455.5
			v-3.1h2.5v3.1H314.1L314.1,455.5z M323.4,455.5v-3.1h2.5v3.1H323.4L323.4,455.5z M330,455.5v-3.1h2.4v2.1c0.8-1.5,2.6-2.4,4.4-2.4
			c2.6,0,4.2,1.2,4.7,3.4l-2.7,0c-0.4-0.9-1.2-1.4-2.3-1.5c-1.4,0-2.3,0.5-3,1.4L330,455.5L330,455.5z M345.9,455.5
			c0.9-2,2.6-3.4,5.2-3.4c2.3,0,3.6,0.9,4.4,2.3l0.1-2h2.3v3.1h-3.5c-0.6-0.9-1.6-1.5-2.9-1.5c-1.2,0-2.1,0.6-2.7,1.5L345.9,455.5
			L345.9,455.5z"/>
		<path class="st1" d="M58.8,447.5L58.8,447.5l2.6,0v0H58.8L58.8,447.5z M111.5,447.5l0-1.4h2.5v1.4H111.5L111.5,447.5z"/>
		<path class="st1" d="M190.4,428.5l-3.7,5.4h9.6v2.3h-12.6v-2.4l3.7-5.3H190.4L190.4,428.5z M201.9,428.5l1.5,5.4l1.7-5.4h2.1
			l-2.4,7.7h-2.9l-2.5-7.7H201.9L201.9,428.5z M211.4,428.5l1.6,5.4l1.6-5.4h2.3l-2.5,7.7h-2.8l-2.4-7.7H211.4L211.4,428.5z
			 M232.3,428.5c0,0.5,0.1,1,0.1,1.6h-9.5c0,2.6,2.1,4.4,4.4,4.4c1.6,0,3.5-0.8,4.1-1.3v2.5c-0.9,0.3-2,0.9-4.2,0.9
			c-4.7,0-6.9-2.9-6.9-7.2c0-0.3,0-0.5,0-0.8L232.3,428.5L232.3,428.5z M237.3,428.5c-0.1,0.3-0.1,0.7-0.1,1c0,2.4,1.3,5,4.4,5
			c0.8,0,1.9-0.3,2.6-0.8l0.2,2.2c-1,0.5-2.2,0.5-3.1,0.5c-4,0-6.8-3.2-6.8-7c0-0.4,0-0.7,0.1-1H237.3L237.3,428.5z M252.5,428.5
			l-0.3,0.3l7,7.4h-3.5l-6-6.8v6.8h-2.4v-7.7H252.5L252.5,428.5z M264.5,428.5l1.7,5.2l1.8-5.2h2.4l-2.8,7.7h-2.9l-2.8-7.7H264.5
			L264.5,428.5z M286,428.5c0,0.5,0.1,1,0.1,1.6h-9.5c0,2.6,2.1,4.4,4.4,4.4c1.6,0,3.5-0.8,4.1-1.3v2.5c-0.9,0.3-2,0.9-4.2,0.9
			c-4.7,0-6.9-2.9-6.9-7.2c0-0.3,0-0.5,0-0.8L286,428.5L286,428.5z M292,428.5c-0.1,0.5-0.1,1-0.1,1.6v6.1h-2.5v-7.7H292L292,428.5z
			 M302.1,428.5c-0.1,0.3-0.1,0.7-0.1,1.1c0,2.2,1.2,5,3.9,5c2.6,0,3.7-3,3.7-5c0-0.3,0-0.7,0-1l2.6,0c0,0.3,0,0.5,0,0.8
			c0,3.7-1.7,7.2-5.7,7.2c-2.4,0-3.9-1.2-4.5-2.2l0,1.9h-2.4v-7.7H302.1L302.1,428.5z M325.9,428.5v5.1c0,1.5,0.1,2.2,0.1,2.6h-2.3
			v-1.7c-0.6,0.8-1.9,2-4.2,2c-2.9,0-4.9-1.3-4.9-4.1c0-2.1,1.4-3.2,3-3.9H325.9L325.9,428.5z M332.6,428.5c-0.1,0.5-0.1,1-0.1,1.5
			v6.2H330v-7.7H332.6L332.6,428.5z M341.8,428.5v7.7h-2.5v-6.9c0-0.3,0-0.5,0-0.8L341.8,428.5L341.8,428.5z M347.7,428.5
			c0,0.3,0,0.7,0,1c0,2.1,1,5,3.7,5c2.8,0,3.9-2.7,3.9-5c0-0.4,0-0.7-0.1-1.1l2.5,0v7.7h-2.4v-1.9c-0.7,1-2.2,2.2-4.6,2.2
			c-4,0-5.7-3.6-5.7-7.2c0-0.3,0-0.5,0-0.8L347.7,428.5L347.7,428.5z M323.4,431v-1.2c-0.5,0-1,0-1.6,0c-1.3,0-4.6,0.2-4.6,2.6
			c0,1.4,1.4,2.2,2.5,2.2C322.1,434.5,323.4,433,323.4,431L323.4,431z"/>
		<path class="st1" d="M187.3,428.5l5.7-8.2h-9.1v-2.3h12.1v2.4l-5.7,8.2H187.3L187.3,428.5z M199.4,428.5l-1.8-5.6h2.7l1.6,5.6
			H199.4L199.4,428.5z M205,428.5l1.8-5.6h2.9l1.7,5.6h-2.2l-1.1-3.5l-1.1,3.5H205L205,428.5z M214.7,428.5l1.7-5.6h2.4l-1.8,5.6
			H214.7L214.7,428.5z M220.3,428.5c0.3-3.5,2.7-5.9,6.2-5.9c3.9,0,5.5,2.5,5.8,5.9L220.3,428.5L220.3,428.5z M234.6,428.5
			c0.4-3.5,3-5.9,6.7-5.9c1,0,2.3,0.2,3,0.5l-0.2,2c-0.9-0.4-1.9-0.6-2.7-0.6c-2.4,0-3.8,1.8-4.2,4L234.6,428.5L234.6,428.5z
			 M247.3,428.5v-11.9h2.4v11.7l5.4-5.4h3.3l-5.9,5.6H247.3L247.3,428.5z M262,428.5l-2-5.6h2.7l1.9,5.6H262L262,428.5z
			 M268.1,428.5l1.9-5.6h2.5l-2,5.6H268.1L268.1,428.5z M274,428.5c0.3-3.5,2.7-5.9,6.2-5.9c3.9,0,5.5,2.5,5.8,5.9L274,428.5
			L274,428.5z M289.4,428.5v-5.6h2.3v2.1c0.7-1.4,2.1-2.4,3.5-2.4c0.7,0,1.1,0.1,1.6,0.2v2.2c-0.4-0.2-0.9-0.2-1.4-0.2
			c-1.8,0-3.1,1.4-3.5,3.8L289.4,428.5L289.4,428.5z M299.5,428.5v-11.9h2.5v8.1c0.8-1.2,2.1-2.1,4.5-2.1c3.6,0,5.4,2.7,5.7,5.9
			l-2.6,0c-0.2-2.1-1.3-4-3.6-4c-2.3,0-3.6,1.9-3.9,4L299.5,428.5L299.5,428.5z M317.6,428.5c1-0.4,2.2-0.5,3.2-0.5l2.6,0
			c0-2.3-0.8-3.5-3.3-3.5c-1.4,0-2.9,0.5-3.9,1.4l-0.1-2.1c1.2-0.7,2.7-1.3,4.4-1.3c3.8,0,5.4,1.9,5.4,5.5v0.4H317.6L317.6,428.5z
			 M330,428.5v-5.6h2.4v2.1c0.8-1.5,2.6-2.4,4.4-2.4c3.4,0,5,2.1,5,5.7v0.2h-2.5c-0.1-2.6-0.9-3.8-2.8-4c-2.3,0-3.6,1.6-3.9,4H330
			L330,428.5z M345.1,428.5c0.3-3.2,2.1-5.9,5.7-5.9c2.3,0,3.7,0.9,4.4,2.1l0-8.1h2.5v11.9h-2.5c-0.3-2.1-1.6-4-3.9-4
			c-2.3,0-3.4,1.9-3.6,4L345.1,428.5L345.1,428.5z M222.9,428.2h6.9c0-2-1.2-3.7-3.3-3.7C224,424.5,223,426.5,222.9,428.2
			L222.9,428.2z M276.6,428.2h6.9c0-2-1.2-3.7-3.3-3.7C277.7,424.5,276.8,426.5,276.6,428.2L276.6,428.2z"/>
	</g>
</g>
</svg>
